<svg width="26" height="25" viewBox="0 0 26 25" fill="none" xmlns="http://www.w3.org/2000/svg">
<rect x="0.75" y="0.75" width="24.5" height="23.5" fill="white" stroke="#45536F" stroke-width="1.5"/>
<rect x="22" y="4" width="4" height="17" fill="white"/>
<rect y="4" width="4" height="17" fill="white"/>
<rect x="4" width="18" height="3" fill="white"/>
<rect x="4" y="22" width="18" height="3" fill="white"/>
<path d="M19 16.75C19 18.4833 18.416 19.9583 17.248 21.175C16.08 22.3917 14.664 23 13 23C11.336 23 9.92 22.3917 8.752 21.175C7.584 19.9583 7 18.4833 7 16.75V7.5C7 6.25 7.42 5.1875 8.26 4.3125C9.1 3.4375 10.12 3 11.32 3C12.52 3 13.54 3.4375 14.38 4.3125C15.22 5.1875 15.64 6.25 15.64 7.5V16.25C15.64 17.0167 15.384 17.6667 14.872 18.2C14.36 18.7333 13.736 19 13 19C12.264 19 11.64 18.7333 11.128 18.2C10.616 17.6667 10.36 17.0167 10.36 16.25V7H12.28V16.25C12.28 16.4667 12.348 16.6458 12.484 16.7875C12.62 16.9292 12.792 17 13 17C13.208 17 13.38 16.9292 13.516 16.7875C13.652 16.6458 13.72 16.4667 13.72 16.25V7.5C13.704 6.8 13.468 6.20833 13.012 5.725C12.556 5.24167 11.992 5 11.32 5C10.648 5 10.08 5.24167 9.616 5.725C9.152 6.20833 8.92 6.8 8.92 7.5V16.75C8.904 17.9333 9.296 18.9375 10.096 19.7625C10.896 20.5875 11.864 21 13 21C14.12 21 15.072 20.5875 15.856 19.7625C16.64 18.9375 17.048 17.9333 17.08 16.75V7H19V16.75Z" fill="#45536F"/>
</svg>
