<svg width="26" height="25" viewBox="0 0 26 25" fill="none" xmlns="http://www.w3.org/2000/svg">
<rect x="0.75" y="0.75" width="24.5" height="23.5" fill="white" stroke="#45536F" stroke-width="1.5"/>
<rect x="22" y="4" width="4" height="17" fill="white"/>
<rect y="4" width="4" height="17" fill="white"/>
<rect x="4" width="18" height="3" fill="white"/>
<rect x="4" y="22" width="18" height="3" fill="white"/>
<path d="M18.8333 4.58333H18V3.79167C18 3.35467 17.6275 3 17.1667 3C16.7058 3 16.3333 3.35467 16.3333 3.79167V4.58333H9.66667V3.79167C9.66667 3.35467 9.29417 3 8.83333 3C8.3725 3 8 3.35467 8 3.79167V4.58333H7.16667C4.86917 4.58333 3 6.35904 3 8.54167V18.0417C3 20.2243 4.86917 22 7.16667 22H18.8333C21.1308 22 23 20.2243 23 18.0417V8.54167C23 6.35904 21.1308 4.58333 18.8333 4.58333ZM7.16667 6.16667H18.8333C20.2117 6.16667 21.3333 7.23225 21.3333 8.54167V9.33333H4.66667V8.54167C4.66667 7.23225 5.78833 6.16667 7.16667 6.16667ZM18.8333 20.4167H7.16667C5.78833 20.4167 4.66667 19.3511 4.66667 18.0417V10.9167H21.3333V18.0417C21.3333 19.3511 20.2117 20.4167 18.8333 20.4167ZM18.8333 14.0833C18.8333 14.5203 18.4608 14.875 18 14.875H8C7.53917 14.875 7.16667 14.5203 7.16667 14.0833C7.16667 13.6463 7.53917 13.2917 8 13.2917H18C18.4608 13.2917 18.8333 13.6463 18.8333 14.0833ZM13 17.25C13 17.687 12.6275 18.0417 12.1667 18.0417H8C7.53917 18.0417 7.16667 17.687 7.16667 17.25C7.16667 16.813 7.53917 16.4583 8 16.4583H12.1667C12.6275 16.4583 13 16.813 13 17.25Z" fill="#45536F"/>
</svg>
