<svg width="362" height="364" viewBox="0 0 362 364" fill="none" xmlns="http://www.w3.org/2000/svg">
<g filter="url(#filter0_dd_860_713)">
<path d="M360 12C360 6.47716 355.523 2 350 2H12C6.47715 2 2 6.47715 2 12V300.5C2 306.023 6.47715 310.5 12 310.5H18.5984C25.0889 310.5 29.0485 317.637 25.6134 323.144L22.6258 327.933C18.3872 334.728 26.7126 342.344 33.1044 337.519V337.519C38.8792 333.16 46.7641 339.057 44.214 345.828L42.7792 349.638C40.7101 355.132 44.7705 361 50.6412 361H301.49C307.398 361 310.357 353.857 306.179 349.679L305.586 349.086C300.435 343.935 306.378 335.513 312.957 338.64V338.64C319.856 341.919 325.763 332.656 319.879 327.785L317.408 325.74C312.086 321.334 315.844 312.709 322.695 313.608L348.7 317.018C354.688 317.803 360 313.142 360 307.103V12Z" fill="white"/>
</g>
<defs>
<filter id="filter0_dd_860_713" x="0" y="0" width="362" height="364" filterUnits="userSpaceOnUse" color-interpolation-filters="sRGB">
<feFlood flood-opacity="0" result="BackgroundImageFix"/>
<feColorMatrix in="SourceAlpha" type="matrix" values="0 0 0 0 0 0 0 0 0 0 0 0 0 0 0 0 0 0 127 0" result="hardAlpha"/>
<feOffset dx="1" dy="-1"/>
<feGaussianBlur stdDeviation="0.5"/>
<feComposite in2="hardAlpha" operator="out"/>
<feColorMatrix type="matrix" values="0 0 0 0 0.431373 0 0 0 0 0.552941 0 0 0 0 0.752941 0 0 0 0.25 0"/>
<feBlend mode="normal" in2="BackgroundImageFix" result="effect1_dropShadow_860_713"/>
<feColorMatrix in="SourceAlpha" type="matrix" values="0 0 0 0 0 0 0 0 0 0 0 0 0 0 0 0 0 0 127 0" result="hardAlpha"/>
<feOffset dx="-1" dy="2"/>
<feGaussianBlur stdDeviation="0.5"/>
<feComposite in2="hardAlpha" operator="out"/>
<feColorMatrix type="matrix" values="0 0 0 0 0.431373 0 0 0 0 0.552941 0 0 0 0 0.752941 0 0 0 0.25 0"/>
<feBlend mode="normal" in2="effect1_dropShadow_860_713" result="effect2_dropShadow_860_713"/>
<feBlend mode="normal" in="SourceGraphic" in2="effect2_dropShadow_860_713" result="shape"/>
</filter>
</defs>
</svg>
