<svg width="362" height="364" viewBox="0 0 362 364" fill="none" xmlns="http://www.w3.org/2000/svg">
<g filter="url(#filter0_dd_860_638)">
<path d="M2 12C2 6.47716 6.47715 2 12 2H350C355.523 2 360 6.47715 360 12V325V338.5V340.349C360 347.737 350.95 351.304 345.909 345.903V345.903C342.361 342.101 336.206 342.556 333.255 346.839L326.481 356.673C324.615 359.382 321.535 361 318.246 361H224.5H195.5H166.5H48.6493C44.1345 361 40.1796 357.975 38.9979 353.617L32.6818 330.327C30.1841 321.116 17.4341 320.305 13.7887 329.124L10.6481 336.722C9.95322 338.403 8.31352 339.5 6.49446 339.5V339.5C4.01224 339.5 2 337.488 2 335.006V318.5V12Z" fill="white"/>
</g>
<defs>
<filter id="filter0_dd_860_638" x="0" y="0" width="362" height="364" filterUnits="userSpaceOnUse" color-interpolation-filters="sRGB">
<feFlood flood-opacity="0" result="BackgroundImageFix"/>
<feColorMatrix in="SourceAlpha" type="matrix" values="0 0 0 0 0 0 0 0 0 0 0 0 0 0 0 0 0 0 127 0" result="hardAlpha"/>
<feOffset dx="-1" dy="2"/>
<feGaussianBlur stdDeviation="0.5"/>
<feComposite in2="hardAlpha" operator="out"/>
<feColorMatrix type="matrix" values="0 0 0 0 0.431373 0 0 0 0 0.552941 0 0 0 0 0.752941 0 0 0 0.25 0"/>
<feBlend mode="normal" in2="BackgroundImageFix" result="effect1_dropShadow_860_638"/>
<feColorMatrix in="SourceAlpha" type="matrix" values="0 0 0 0 0 0 0 0 0 0 0 0 0 0 0 0 0 0 127 0" result="hardAlpha"/>
<feOffset dx="1" dy="-1"/>
<feGaussianBlur stdDeviation="0.5"/>
<feComposite in2="hardAlpha" operator="out"/>
<feColorMatrix type="matrix" values="0 0 0 0 0.431373 0 0 0 0 0.552941 0 0 0 0 0.752941 0 0 0 0.25 0"/>
<feBlend mode="normal" in2="effect1_dropShadow_860_638" result="effect2_dropShadow_860_638"/>
<feBlend mode="normal" in="SourceGraphic" in2="effect2_dropShadow_860_638" result="shape"/>
</filter>
</defs>
</svg>
