<svg width="362" height="364" viewBox="0 0 362 364" fill="none" xmlns="http://www.w3.org/2000/svg">
<g filter="url(#filter0_dd_849_995)">
<path d="M2 12C2 6.47716 6.47715 2 12 2H350C355.523 2 360 6.47715 360 12V351C360 356.523 355.523 361 350 361H339H323.5H60.5101C54.602 361 51.6432 353.857 55.8208 349.679L56.4142 349.086C61.5652 343.935 55.6219 335.513 49.0426 338.64C42.1435 341.919 36.2373 332.656 42.1213 327.785L44.5917 325.74C49.914 321.334 46.1557 312.709 39.3049 313.608L13.3003 317.018C7.31236 317.803 2 313.142 2 307.103V12Z" fill="white"/>
</g>
<defs>
<filter id="filter0_dd_849_995" x="0" y="0" width="362" height="364" filterUnits="userSpaceOnUse" color-interpolation-filters="sRGB">
<feFlood flood-opacity="0" result="BackgroundImageFix"/>
<feColorMatrix in="SourceAlpha" type="matrix" values="0 0 0 0 0 0 0 0 0 0 0 0 0 0 0 0 0 0 127 0" result="hardAlpha"/>
<feOffset dx="-1" dy="2"/>
<feGaussianBlur stdDeviation="0.5"/>
<feComposite in2="hardAlpha" operator="out"/>
<feColorMatrix type="matrix" values="0 0 0 0 0.431373 0 0 0 0 0.552941 0 0 0 0 0.752941 0 0 0 0.25 0"/>
<feBlend mode="normal" in2="BackgroundImageFix" result="effect1_dropShadow_849_995"/>
<feColorMatrix in="SourceAlpha" type="matrix" values="0 0 0 0 0 0 0 0 0 0 0 0 0 0 0 0 0 0 127 0" result="hardAlpha"/>
<feOffset dx="1" dy="-1"/>
<feGaussianBlur stdDeviation="0.5"/>
<feComposite in2="hardAlpha" operator="out"/>
<feColorMatrix type="matrix" values="0 0 0 0 0.431373 0 0 0 0 0.552941 0 0 0 0 0.752941 0 0 0 0.25 0"/>
<feBlend mode="normal" in2="effect1_dropShadow_849_995" result="effect2_dropShadow_849_995"/>
<feBlend mode="normal" in="SourceGraphic" in2="effect2_dropShadow_849_995" result="shape"/>
</filter>
</defs>
</svg>
