<svg width="362" height="364" viewBox="0 0 362 364" fill="none" xmlns="http://www.w3.org/2000/svg">
<g filter="url(#filter0_dd_860_738)">
<path d="M2 12C2 6.47716 6.47715 2 12 2H350C355.523 2 360 6.47715 360 12V325V329.003C360 336.129 352.742 340.953 346.172 338.196L342.124 336.496C334.711 333.385 327.547 341.4 331.469 348.419V348.419C334.619 354.055 330.545 361 324.088 361H323.5H208H193.5H180.5H25.7943C20.6612 361 16.5 356.839 16.5 351.706V342.451C16.5 338.721 12.2715 336.562 9.25 338.75V338.75C6.22849 340.938 2 338.779 2 335.049V327V318.5V12Z" fill="white"/>
</g>
<defs>
<filter id="filter0_dd_860_738" x="0" y="0" width="362" height="364" filterUnits="userSpaceOnUse" color-interpolation-filters="sRGB">
<feFlood flood-opacity="0" result="BackgroundImageFix"/>
<feColorMatrix in="SourceAlpha" type="matrix" values="0 0 0 0 0 0 0 0 0 0 0 0 0 0 0 0 0 0 127 0" result="hardAlpha"/>
<feOffset dx="-1" dy="2"/>
<feGaussianBlur stdDeviation="0.5"/>
<feComposite in2="hardAlpha" operator="out"/>
<feColorMatrix type="matrix" values="0 0 0 0 0.431373 0 0 0 0 0.552941 0 0 0 0 0.752941 0 0 0 0.25 0"/>
<feBlend mode="normal" in2="BackgroundImageFix" result="effect1_dropShadow_860_738"/>
<feColorMatrix in="SourceAlpha" type="matrix" values="0 0 0 0 0 0 0 0 0 0 0 0 0 0 0 0 0 0 127 0" result="hardAlpha"/>
<feOffset dx="1" dy="-1"/>
<feGaussianBlur stdDeviation="0.5"/>
<feComposite in2="hardAlpha" operator="out"/>
<feColorMatrix type="matrix" values="0 0 0 0 0.431373 0 0 0 0 0.552941 0 0 0 0 0.752941 0 0 0 0.25 0"/>
<feBlend mode="normal" in2="effect1_dropShadow_860_738" result="effect2_dropShadow_860_738"/>
<feBlend mode="normal" in="SourceGraphic" in2="effect2_dropShadow_860_738" result="shape"/>
</filter>
</defs>
</svg>
