<svg width="16" height="16" viewBox="0 0 16 16" fill="none" xmlns="http://www.w3.org/2000/svg">
<path d="M1.95355 15.6464C1.75829 15.8417 1.44171 15.8417 1.24645 15.6464L0.353553 14.7536C0.158291 14.5583 0.158291 14.2417 0.353553 14.0464L6.04645 8.35355C6.24171 8.15829 6.24171 7.84171 6.04645 7.64645L0.353553 1.95355C0.158291 1.75829 0.158291 1.44171 0.353553 1.24645L1.24645 0.353553C1.44171 0.158291 1.75829 0.158291 1.95355 0.353553L7.64645 6.04645C7.84171 6.24171 8.15829 6.24171 8.35355 6.04645L14.0464 0.353553C14.2417 0.158291 14.5583 0.158291 14.7536 0.353553L15.6464 1.24645C15.8417 1.44171 15.8417 1.75829 15.6464 1.95355L9.95355 7.64645C9.75829 7.84171 9.75829 8.15829 9.95355 8.35355L15.6464 14.0464C15.8417 14.2417 15.8417 14.5583 15.6464 14.7536L14.7536 15.6464C14.5583 15.8417 14.2417 15.8417 14.0464 15.6464L8.35355 9.95355C8.15829 9.75829 7.84171 9.75829 7.64645 9.95355L1.95355 15.6464Z" fill="#31BABE"/>
</svg>
