<svg width="18" height="20" viewBox="0 0 18 20" fill="none" xmlns="http://www.w3.org/2000/svg">
<path d="M1.6252 20C1.34186 20 1.09603 19.8958 0.887695 19.6875C0.679362 19.4792 0.575195 19.2333 0.575195 18.95V16.325C0.575195 14.825 1.04186 13.5 1.9752 12.35C2.90853 11.2 4.10853 10.4667 5.5752 10.15C4.90853 10.6167 4.39186 11.2042 4.0252 11.9125C3.65853 12.6208 3.4752 13.3833 3.4752 14.2V18.95C3.4752 19.1333 3.5002 19.3167 3.5502 19.5C3.6002 19.6833 3.68353 19.85 3.8002 20H1.6252ZM5.3002 20C5.01686 20 4.77103 19.8958 4.5627 19.6875C4.35436 19.4792 4.2502 19.2333 4.2502 18.95V14.2C4.2502 13.0333 4.6627 12.0417 5.4877 11.225C6.3127 10.4083 7.30853 10 8.4752 10H13.2002C14.3669 10 15.3585 10.4083 16.1752 11.225C16.9919 12.0417 17.4002 13.0333 17.4002 14.2V15.8C17.4002 16.9667 16.9919 17.9583 16.1752 18.775C15.3585 19.5917 14.3669 20 13.2002 20H5.3002ZM9.0002 7.9C7.9002 7.9 6.96686 7.51667 6.2002 6.75C5.43353 5.98333 5.0502 5.05 5.0502 3.95C5.0502 2.85 5.43353 1.91667 6.2002 1.15C6.96686 0.383333 7.9002 0 9.0002 0C10.1002 0 11.0335 0.383333 11.8002 1.15C12.5669 1.91667 12.9502 2.85 12.9502 3.95C12.9502 5.05 12.5669 5.98333 11.8002 6.75C11.0335 7.51667 10.1002 7.9 9.0002 7.9Z" fill="white"/>
</svg>
