<svg width="26" height="25" viewBox="0 0 26 25" fill="none" xmlns="http://www.w3.org/2000/svg">
<rect x="0.75" y="0.75" width="24.5" height="23.5" fill="white" stroke="#45536F" stroke-width="1.5"/>
<rect x="22" y="4" width="4" height="17" fill="white"/>
<rect y="4" width="4" height="17" fill="white"/>
<rect x="4" width="18" height="3" fill="white"/>
<rect x="4" y="22" width="18" height="3" fill="white"/>
<path d="M15.6667 22L10.3333 19.9L6.2 21.7C5.9037 21.8333 5.62963 21.7958 5.37778 21.5875C5.12593 21.3792 5 21.1 5 20.75V6.75C5 6.53333 5.05556 6.34167 5.16667 6.175C5.27778 6.00833 5.42963 5.88333 5.62222 5.8L10.3333 4L15.6667 6.1L19.8 4.3C20.0963 4.16667 20.3704 4.20417 20.6222 4.4125C20.8741 4.62083 21 4.9 21 5.25V19.25C21 19.4667 20.9444 19.6583 20.8333 19.825C20.7222 19.9917 20.5704 20.1167 20.3778 20.2L15.6667 22ZM14.7778 19.55V7.85L11.2222 6.45V18.15L14.7778 19.55ZM16.5556 19.55L19.2222 18.55V6.7L16.5556 7.85V19.55ZM6.77778 19.3L9.44444 18.15V6.45L6.77778 7.45V19.3Z" fill="#45536F"/>
</svg>
