<svg width="16" height="14" viewBox="0 0 16 14" fill="none" xmlns="http://www.w3.org/2000/svg">
<path d="M10.6667 14L5.33333 12.3667L1.2 13.7667C0.903704 13.8704 0.62963 13.8412 0.377778 13.6792C0.125926 13.5171 0 13.3 0 13.0278V2.13889C0 1.97037 0.0555556 1.8213 0.166667 1.69167C0.277778 1.56204 0.42963 1.46481 0.622222 1.4L5.33333 0L10.6667 1.63333L14.8 0.233333C15.0963 0.12963 15.3704 0.158796 15.6222 0.320833C15.8741 0.48287 16 0.7 16 0.972222V11.8611C16 12.0296 15.9444 12.1787 15.8333 12.3083C15.7222 12.438 15.5704 12.5352 15.3778 12.6L10.6667 14ZM9.77778 12.0944V2.99444L6.22222 1.90556V11.0056L9.77778 12.0944ZM11.5556 12.0944L14.2222 11.3167V2.1L11.5556 2.99444V12.0944ZM1.77778 11.9L4.44444 11.0056V1.90556L1.77778 2.68333V11.9Z" fill="#45536F"/>
</svg>
