<svg width="28" height="27" viewBox="0 0 28 27" fill="none" xmlns="http://www.w3.org/2000/svg">
<rect x="1.75" y="1.75" width="24.5" height="23.5" fill="white" stroke="#45536F" stroke-width="1.5"/>
<rect x="23" y="5" width="5" height="17" fill="white"/>
<rect y="5" width="5" height="17" fill="white"/>
<rect x="5" width="18" height="4" fill="white"/>
<rect x="5" y="23" width="18" height="4" fill="white"/>
<path d="M16.6667 22L10.3333 20.0167L5.425 21.7167C5.07315 21.8426 4.74769 21.8072 4.44861 21.6104C4.14954 21.4137 4 21.15 4 20.8194V7.59722C4 7.39259 4.06597 7.21157 4.19792 7.05417C4.32986 6.89676 4.51019 6.7787 4.73889 6.7L10.3333 5L16.6667 6.98333L21.575 5.28333C21.9269 5.15741 22.2523 5.19282 22.5514 5.38958C22.8505 5.58634 23 5.85 23 6.18056V19.4028C23 19.6074 22.934 19.7884 22.8021 19.9458C22.6701 20.1032 22.4898 20.2213 22.2611 20.3L16.6667 22ZM15.6111 19.6861V8.63611L11.3889 7.31389V18.3639L15.6111 19.6861ZM17.7222 19.6861L20.8889 18.7417V7.55L17.7222 8.63611V19.6861ZM6.11111 19.45L9.27778 18.3639V7.31389L6.11111 8.25833V19.45Z" fill="#45536F"/>
</svg>
