<svg width="26" height="25" viewBox="0 0 26 25" fill="none" xmlns="http://www.w3.org/2000/svg">
<rect x="0.75" y="0.75" width="24.5" height="23.5" fill="white" stroke="#45536F" stroke-width="1.5"/>
<rect x="22" y="4" width="4" height="17" fill="white"/>
<rect y="4" width="4" height="17" fill="white"/>
<rect x="4" width="18" height="3" fill="white"/>
<rect x="4" y="22" width="18" height="3" fill="white"/>
<path d="M19.7833 4.5866V6.36606L15.7423 3.63887L15.7422 3.63886C14.3803 2.72038 12.6197 2.72038 11.2578 3.63886L11.2577 3.63886L5.71687 7.37799C4.61061 8.12418 3.95 9.36498 3.95 10.7003V18.0424C3.95 20.2522 5.7481 22.05 7.95833 22.05H19.0417C21.2519 22.05 23.05 20.2522 23.05 18.0424V10.7003C23.05 9.44153 22.4615 8.26418 21.4667 7.50929V4.5866C21.4667 4.12123 21.0896 3.74508 20.625 3.74508C20.1604 3.74508 19.7833 4.12123 19.7833 4.5866ZM6.65786 8.77404L6.65788 8.77402L12.1995 5.03489L12.1996 5.03486C12.595 4.76744 13.0475 4.63422 13.5 4.63422C13.9525 4.63422 14.405 4.76744 14.8004 5.03486L14.8005 5.03489L20.3421 8.77402C20.9839 9.20719 21.3667 9.92621 21.3667 10.7003V18.0424C21.3667 19.324 20.3235 20.367 19.0417 20.367H7.95833C6.67652 20.367 5.63333 19.324 5.63333 18.0424V10.7003C5.63333 9.92618 6.01616 9.20641 6.65786 8.77404ZM15.0833 10.8687H11.9167C11.0159 10.8687 10.2833 11.6011 10.2833 12.5018V15.6679C10.2833 16.5685 11.0159 17.3009 11.9167 17.3009H15.0833C15.9841 17.3009 16.7167 16.5685 16.7167 15.6679V12.5018C16.7167 11.6011 15.9841 10.8687 15.0833 10.8687ZM11.9667 15.6179V12.5518H15.0333V15.6179H11.9667Z" fill="#45536F" stroke="#45536F" stroke-width="0.1"/>
</svg>
