<svg width="17" height="17" viewBox="0 0 17 17" fill="none" xmlns="http://www.w3.org/2000/svg">
<path d="M13.45 2.25258V3.63761L10.2761 1.49564L10.2761 1.49563C9.19731 0.768122 7.80269 0.768122 6.72392 1.49563L6.72391 1.49564L2.34954 4.44758C2.34954 4.44758 2.34953 4.44759 2.34953 4.44759C1.47327 5.03864 0.95 6.02148 0.95 7.07917V12.8756C0.95 14.626 2.37427 16.05 4.125 16.05H12.875C14.6257 16.05 16.05 14.626 16.05 12.8756V7.07917C16.05 6.08388 15.5855 5.15282 14.8 4.55475V2.25258C14.8 1.87936 14.4976 1.57769 14.125 1.57769C13.7524 1.57769 13.45 1.87936 13.45 2.25258ZM3.10419 5.56718L3.10422 5.56716L7.47922 2.61522L7.47926 2.61518C7.78964 2.40526 8.14486 2.3007 8.5 2.3007C8.85514 2.3007 9.21036 2.40526 9.52074 2.61518L9.52078 2.61522L13.8958 5.56716C14.3995 5.90719 14.7 6.47156 14.7 7.07917V12.8756C14.7 13.8815 13.8811 14.7002 12.875 14.7002H4.125C3.11886 14.7002 2.3 13.8815 2.3 12.8756V7.07917C2.3 6.47154 2.60049 5.90657 3.10419 5.56718ZM9.75 7.20164H7.25C6.53302 7.20164 5.95 7.78454 5.95 8.50141V11.0009C5.95 11.7178 6.53302 12.3007 7.25 12.3007H9.75C10.467 12.3007 11.05 11.7178 11.05 11.0009V8.50141C11.05 7.78454 10.467 7.20164 9.75 7.20164ZM7.3 10.9509V8.55141H9.7V10.9509H7.3Z" fill="#45536F" stroke="#45536F" stroke-width="0.1"/>
</svg>
