<svg width="28" height="27" viewBox="0 0 28 27" fill="none" xmlns="http://www.w3.org/2000/svg">
<rect x="1.75" y="1.75" width="24.5" height="23.5" fill="white" stroke="#45536F" stroke-width="1.5"/>
<rect x="23" y="5" width="5" height="17" fill="white"/>
<rect y="5" width="5" height="17" fill="white"/>
<rect x="5" width="18" height="4" fill="white"/>
<rect x="5" y="23" width="18" height="4" fill="white"/>
<path d="M20.6167 4.6701V6.54817L16.3588 3.67467L16.3588 3.67466C14.9261 2.70845 13.0739 2.70845 11.6412 3.67466L11.6412 3.67467L5.80871 7.61059C5.8087 7.61059 5.8087 7.6106 5.8087 7.6106C4.64494 8.39557 3.95 9.70086 3.95 11.1056V18.8341C3.95 21.1588 5.84156 23.05 8.16667 23.05H19.8333C22.1584 23.05 24.05 21.1588 24.05 18.8341V11.1056C24.05 9.78095 23.4305 8.54203 22.3833 7.74793V4.6701C22.3833 4.1817 21.9876 3.78693 21.5 3.78693C21.0124 3.78693 20.6167 4.1817 20.6167 4.6701ZM6.79627 9.07575L6.7963 9.07573L12.6296 5.1398L12.6297 5.13977C13.0463 4.85799 13.5232 4.7176 14 4.7176C14.4768 4.7176 14.9537 4.85799 15.3703 5.13977L15.3704 5.1398L21.2037 9.07573C21.8799 9.5322 22.2833 10.2899 22.2833 11.1056V18.8341C22.2833 20.1846 21.1841 21.2836 19.8333 21.2836H8.16667C6.81594 21.2836 5.71667 20.1846 5.71667 18.8341V11.1056C5.71667 10.2898 6.12007 9.53137 6.79627 9.07575ZM15.6667 11.2855H12.3333C11.3866 11.2855 10.6167 12.0553 10.6167 13.0019V16.3346C10.6167 17.2812 11.3866 18.0509 12.3333 18.0509H15.6667C16.6134 18.0509 17.3833 17.2812 17.3833 16.3346V13.0019C17.3833 12.0553 16.6134 11.2855 15.6667 11.2855ZM12.3833 16.2846V13.0519H15.6167V16.2846H12.3833Z" fill="#45536F" stroke="#45536F" stroke-width="0.1"/>
</svg>
