<svg width="26" height="25" viewBox="0 0 26 25" fill="none" xmlns="http://www.w3.org/2000/svg">
<rect x="0.75" y="0.75" width="24.5" height="23.5" fill="white" stroke="#45536F" stroke-width="1.5"/>
<rect x="22" y="4" width="4" height="17" fill="white"/>
<rect y="4" width="4" height="17" fill="white"/>
<rect x="4" width="18" height="3" fill="white"/>
<rect x="4" y="22" width="18" height="3" fill="white"/>
<mask id="path-6-outside-1_1152_642" maskUnits="userSpaceOnUse" x="3" y="2" width="20" height="22" fill="black">
<rect fill="white" x="3" y="2" width="20" height="22"/>
<path d="M12.9706 5.45438C14.7325 5.45438 16.3946 5.83423 17.957 6.59392C19.5195 7.35361 20.8242 8.4514 21.8714 9.8873C21.9878 10.0376 22.0252 10.1711 21.9836 10.288C21.942 10.4049 21.8714 10.5051 21.7717 10.5886C21.6719 10.672 21.5556 10.7096 21.4226 10.7013C21.2897 10.6929 21.1733 10.6219 21.0736 10.4884C20.1594 9.18605 18.9834 8.18843 17.5457 7.49553C16.1079 6.80262 14.5829 6.45617 12.9706 6.45617C11.3583 6.45617 9.84577 6.80262 8.43295 7.49553C7.02012 8.18843 5.84831 9.18605 4.91751 10.4884C4.81778 10.6386 4.70143 10.7221 4.56845 10.7388C4.43548 10.7555 4.31913 10.7221 4.2194 10.6386C4.10305 10.5552 4.03241 10.4508 4.00748 10.3256C3.98255 10.2004 4.01995 10.071 4.11967 9.93739C5.15021 8.51819 6.44252 7.41622 7.99663 6.63148C9.55074 5.84675 11.2087 5.45438 12.9706 5.45438ZM12.9706 7.80859C15.2145 7.80859 17.1426 8.55993 18.7549 10.0626C20.3672 11.5653 21.1733 13.427 21.1733 15.6476C21.1733 16.4824 20.8783 17.1795 20.2882 17.7388C19.6981 18.2982 18.9793 18.5778 18.1316 18.5778C17.2839 18.5778 16.5567 18.2982 15.95 17.7388C15.3433 17.1795 15.04 16.4824 15.04 15.6476C15.04 15.0966 14.8364 14.6333 14.4291 14.2576C14.0219 13.8819 13.5357 13.6941 12.9706 13.6941C12.4055 13.6941 11.9193 13.8819 11.5121 14.2576C11.1048 14.6333 10.9012 15.0966 10.9012 15.6476C10.9012 17.2671 11.3791 18.6196 12.3348 19.7048C13.2906 20.7901 14.5247 21.5498 16.0373 21.9839C16.1869 22.034 16.2866 22.1175 16.3365 22.2343C16.3863 22.3512 16.3946 22.4764 16.3614 22.61C16.3281 22.7269 16.2617 22.8271 16.1619 22.9106C16.0622 22.994 15.9375 23.0191 15.7879 22.9857C14.0593 22.5516 12.6465 21.6875 11.5495 20.3936C10.4525 19.0996 9.90395 17.5176 9.90395 15.6476C9.90395 14.8128 10.2031 14.1115 10.8015 13.5438C11.3999 12.9761 12.1229 12.6923 12.9706 12.6923C13.8183 12.6923 14.5413 12.9761 15.1397 13.5438C15.7381 14.1115 16.0373 14.8128 16.0373 15.6476C16.0373 16.1986 16.245 16.6619 16.6606 17.0376C17.0761 17.4132 17.5664 17.6011 18.1316 17.6011C18.6967 17.6011 19.1787 17.4132 19.5776 17.0376C19.9766 16.6619 20.176 16.1986 20.176 15.6476C20.176 13.7108 19.4696 12.0829 18.0568 10.7639C16.644 9.44484 14.9569 8.78533 12.9955 8.78533C11.0342 8.78533 9.34713 9.44484 7.9343 10.7639C6.52148 12.0829 5.81506 13.7024 5.81506 15.6225C5.81506 16.0233 5.85246 16.5242 5.92726 17.1252C6.00206 17.7263 6.18074 18.4275 6.4633 19.229C6.51317 19.3792 6.50901 19.5128 6.45084 19.6297C6.39266 19.7466 6.29709 19.8301 6.16412 19.8801C6.03114 19.9302 5.90233 19.9261 5.77767 19.8676C5.65301 19.8092 5.56574 19.7132 5.51588 19.5796C5.26656 18.9284 5.08788 18.2815 4.97984 17.6386C4.8718 16.9958 4.81778 16.3321 4.81778 15.6476C4.81778 13.427 5.61976 11.5653 7.22373 10.0626C8.82771 8.55993 10.7433 7.80859 12.9706 7.80859ZM12.9706 3C14.0344 3 15.0732 3.1294 16.0871 3.38819C17.101 3.64699 18.0817 4.01849 19.0291 4.50268C19.1787 4.58617 19.266 4.68634 19.2909 4.80322C19.3159 4.9201 19.3034 5.03697 19.2535 5.15385C19.2037 5.27072 19.1205 5.36255 19.0042 5.42934C18.8878 5.49612 18.7466 5.48778 18.5804 5.40429C17.6994 4.95349 16.7894 4.60704 15.8503 4.36494C14.9112 4.12284 13.9513 4.00179 12.9706 4.00179C12.0066 4.00179 11.0591 4.11449 10.1283 4.33989C9.19753 4.5653 8.30828 4.9201 7.46059 5.40429C7.32762 5.48778 7.19465 5.50865 7.06167 5.46691C6.9287 5.42516 6.82897 5.33751 6.76249 5.20394C6.696 5.07036 6.67938 4.94931 6.71262 4.84079C6.74587 4.73226 6.82897 4.63626 6.96195 4.55277C7.89275 4.05188 8.8651 3.66786 9.87901 3.40072C10.8929 3.13357 11.9235 3 12.9706 3ZM12.9706 10.2379C14.5164 10.2379 15.8461 10.7597 16.9598 11.8032C18.0734 12.8468 18.6302 14.1282 18.6302 15.6476C18.6302 15.7979 18.5845 15.9189 18.4931 16.0107C18.4017 16.1026 18.2812 16.1485 18.1316 16.1485C17.9986 16.1485 17.8822 16.1026 17.7825 16.0107C17.6828 15.9189 17.6329 15.7979 17.6329 15.6476C17.6329 14.3953 17.1717 13.3476 16.2492 12.5045C15.3267 11.6613 14.2338 11.2397 12.9706 11.2397C11.7074 11.2397 10.6228 11.6613 9.71695 12.5045C8.81108 13.3476 8.35815 14.3953 8.35815 15.6476C8.35815 17 8.59085 18.1479 9.05625 19.0912C9.52165 20.0346 10.2031 20.9821 11.1007 21.9338C11.2004 22.034 11.2503 22.1509 11.2503 22.2844C11.2503 22.418 11.2004 22.5349 11.1007 22.6351C11.001 22.7352 10.8846 22.7853 10.7516 22.7853C10.6187 22.7853 10.5023 22.7352 10.4026 22.6351C9.42192 21.5999 8.6698 20.5438 8.14623 19.4669C7.62265 18.39 7.36086 17.1169 7.36086 15.6476C7.36086 14.1282 7.90937 12.8468 9.00639 11.8032C10.1034 10.7597 11.4248 10.2379 12.9706 10.2379ZM12.9457 15.1467C13.0953 15.1467 13.2158 15.1968 13.3072 15.297C13.3986 15.3971 13.4443 15.514 13.4443 15.6476C13.4443 16.8998 13.8931 17.9267 14.7907 18.7281C15.6882 19.5295 16.7354 19.9302 17.9321 19.9302C18.0318 19.9302 18.1731 19.9219 18.356 19.9052C18.5388 19.8885 18.7299 19.8634 18.9294 19.8301C19.079 19.7967 19.2078 19.8175 19.3159 19.8927C19.4239 19.9678 19.4945 20.0805 19.5278 20.2308C19.561 20.3643 19.5361 20.4812 19.453 20.5814C19.3699 20.6816 19.2618 20.7484 19.1289 20.7818C18.8297 20.8652 18.5679 20.9112 18.3435 20.9195C18.1191 20.9278 17.982 20.932 17.9321 20.932C16.4528 20.932 15.1688 20.4311 14.0801 19.4293C12.9914 18.4275 12.447 17.167 12.447 15.6476C12.447 15.514 12.4927 15.3971 12.5842 15.297C12.6756 15.1968 12.7961 15.1467 12.9457 15.1467Z"/>
</mask>
<path d="M12.9706 5.45438C14.7325 5.45438 16.3946 5.83423 17.957 6.59392C19.5195 7.35361 20.8242 8.4514 21.8714 9.8873C21.9878 10.0376 22.0252 10.1711 21.9836 10.288C21.942 10.4049 21.8714 10.5051 21.7717 10.5886C21.6719 10.672 21.5556 10.7096 21.4226 10.7013C21.2897 10.6929 21.1733 10.6219 21.0736 10.4884C20.1594 9.18605 18.9834 8.18843 17.5457 7.49553C16.1079 6.80262 14.5829 6.45617 12.9706 6.45617C11.3583 6.45617 9.84577 6.80262 8.43295 7.49553C7.02012 8.18843 5.84831 9.18605 4.91751 10.4884C4.81778 10.6386 4.70143 10.7221 4.56845 10.7388C4.43548 10.7555 4.31913 10.7221 4.2194 10.6386C4.10305 10.5552 4.03241 10.4508 4.00748 10.3256C3.98255 10.2004 4.01995 10.071 4.11967 9.93739C5.15021 8.51819 6.44252 7.41622 7.99663 6.63148C9.55074 5.84675 11.2087 5.45438 12.9706 5.45438ZM12.9706 7.80859C15.2145 7.80859 17.1426 8.55993 18.7549 10.0626C20.3672 11.5653 21.1733 13.427 21.1733 15.6476C21.1733 16.4824 20.8783 17.1795 20.2882 17.7388C19.6981 18.2982 18.9793 18.5778 18.1316 18.5778C17.2839 18.5778 16.5567 18.2982 15.95 17.7388C15.3433 17.1795 15.04 16.4824 15.04 15.6476C15.04 15.0966 14.8364 14.6333 14.4291 14.2576C14.0219 13.8819 13.5357 13.6941 12.9706 13.6941C12.4055 13.6941 11.9193 13.8819 11.5121 14.2576C11.1048 14.6333 10.9012 15.0966 10.9012 15.6476C10.9012 17.2671 11.3791 18.6196 12.3348 19.7048C13.2906 20.7901 14.5247 21.5498 16.0373 21.9839C16.1869 22.034 16.2866 22.1175 16.3365 22.2343C16.3863 22.3512 16.3946 22.4764 16.3614 22.61C16.3281 22.7269 16.2617 22.8271 16.1619 22.9106C16.0622 22.994 15.9375 23.0191 15.7879 22.9857C14.0593 22.5516 12.6465 21.6875 11.5495 20.3936C10.4525 19.0996 9.90395 17.5176 9.90395 15.6476C9.90395 14.8128 10.2031 14.1115 10.8015 13.5438C11.3999 12.9761 12.1229 12.6923 12.9706 12.6923C13.8183 12.6923 14.5413 12.9761 15.1397 13.5438C15.7381 14.1115 16.0373 14.8128 16.0373 15.6476C16.0373 16.1986 16.245 16.6619 16.6606 17.0376C17.0761 17.4132 17.5664 17.6011 18.1316 17.6011C18.6967 17.6011 19.1787 17.4132 19.5776 17.0376C19.9766 16.6619 20.176 16.1986 20.176 15.6476C20.176 13.7108 19.4696 12.0829 18.0568 10.7639C16.644 9.44484 14.9569 8.78533 12.9955 8.78533C11.0342 8.78533 9.34713 9.44484 7.9343 10.7639C6.52148 12.0829 5.81506 13.7024 5.81506 15.6225C5.81506 16.0233 5.85246 16.5242 5.92726 17.1252C6.00206 17.7263 6.18074 18.4275 6.4633 19.229C6.51317 19.3792 6.50901 19.5128 6.45084 19.6297C6.39266 19.7466 6.29709 19.8301 6.16412 19.8801C6.03114 19.9302 5.90233 19.9261 5.77767 19.8676C5.65301 19.8092 5.56574 19.7132 5.51588 19.5796C5.26656 18.9284 5.08788 18.2815 4.97984 17.6386C4.8718 16.9958 4.81778 16.3321 4.81778 15.6476C4.81778 13.427 5.61976 11.5653 7.22373 10.0626C8.82771 8.55993 10.7433 7.80859 12.9706 7.80859ZM12.9706 3C14.0344 3 15.0732 3.1294 16.0871 3.38819C17.101 3.64699 18.0817 4.01849 19.0291 4.50268C19.1787 4.58617 19.266 4.68634 19.2909 4.80322C19.3159 4.9201 19.3034 5.03697 19.2535 5.15385C19.2037 5.27072 19.1205 5.36255 19.0042 5.42934C18.8878 5.49612 18.7466 5.48778 18.5804 5.40429C17.6994 4.95349 16.7894 4.60704 15.8503 4.36494C14.9112 4.12284 13.9513 4.00179 12.9706 4.00179C12.0066 4.00179 11.0591 4.11449 10.1283 4.33989C9.19753 4.5653 8.30828 4.9201 7.46059 5.40429C7.32762 5.48778 7.19465 5.50865 7.06167 5.46691C6.9287 5.42516 6.82897 5.33751 6.76249 5.20394C6.696 5.07036 6.67938 4.94931 6.71262 4.84079C6.74587 4.73226 6.82897 4.63626 6.96195 4.55277C7.89275 4.05188 8.8651 3.66786 9.87901 3.40072C10.8929 3.13357 11.9235 3 12.9706 3ZM12.9706 10.2379C14.5164 10.2379 15.8461 10.7597 16.9598 11.8032C18.0734 12.8468 18.6302 14.1282 18.6302 15.6476C18.6302 15.7979 18.5845 15.9189 18.4931 16.0107C18.4017 16.1026 18.2812 16.1485 18.1316 16.1485C17.9986 16.1485 17.8822 16.1026 17.7825 16.0107C17.6828 15.9189 17.6329 15.7979 17.6329 15.6476C17.6329 14.3953 17.1717 13.3476 16.2492 12.5045C15.3267 11.6613 14.2338 11.2397 12.9706 11.2397C11.7074 11.2397 10.6228 11.6613 9.71695 12.5045C8.81108 13.3476 8.35815 14.3953 8.35815 15.6476C8.35815 17 8.59085 18.1479 9.05625 19.0912C9.52165 20.0346 10.2031 20.9821 11.1007 21.9338C11.2004 22.034 11.2503 22.1509 11.2503 22.2844C11.2503 22.418 11.2004 22.5349 11.1007 22.6351C11.001 22.7352 10.8846 22.7853 10.7516 22.7853C10.6187 22.7853 10.5023 22.7352 10.4026 22.6351C9.42192 21.5999 8.6698 20.5438 8.14623 19.4669C7.62265 18.39 7.36086 17.1169 7.36086 15.6476C7.36086 14.1282 7.90937 12.8468 9.00639 11.8032C10.1034 10.7597 11.4248 10.2379 12.9706 10.2379ZM12.9457 15.1467C13.0953 15.1467 13.2158 15.1968 13.3072 15.297C13.3986 15.3971 13.4443 15.514 13.4443 15.6476C13.4443 16.8998 13.8931 17.9267 14.7907 18.7281C15.6882 19.5295 16.7354 19.9302 17.9321 19.9302C18.0318 19.9302 18.1731 19.9219 18.356 19.9052C18.5388 19.8885 18.7299 19.8634 18.9294 19.8301C19.079 19.7967 19.2078 19.8175 19.3159 19.8927C19.4239 19.9678 19.4945 20.0805 19.5278 20.2308C19.561 20.3643 19.5361 20.4812 19.453 20.5814C19.3699 20.6816 19.2618 20.7484 19.1289 20.7818C18.8297 20.8652 18.5679 20.9112 18.3435 20.9195C18.1191 20.9278 17.982 20.932 17.9321 20.932C16.4528 20.932 15.1688 20.4311 14.0801 19.4293C12.9914 18.4275 12.447 17.167 12.447 15.6476C12.447 15.514 12.4927 15.3971 12.5842 15.297C12.6756 15.1968 12.7961 15.1467 12.9457 15.1467Z" fill="#45536F"/>
<path d="M12.9706 5.45438C14.7325 5.45438 16.3946 5.83423 17.957 6.59392C19.5195 7.35361 20.8242 8.4514 21.8714 9.8873C21.9878 10.0376 22.0252 10.1711 21.9836 10.288C21.942 10.4049 21.8714 10.5051 21.7717 10.5886C21.6719 10.672 21.5556 10.7096 21.4226 10.7013C21.2897 10.6929 21.1733 10.6219 21.0736 10.4884C20.1594 9.18605 18.9834 8.18843 17.5457 7.49553C16.1079 6.80262 14.5829 6.45617 12.9706 6.45617C11.3583 6.45617 9.84577 6.80262 8.43295 7.49553C7.02012 8.18843 5.84831 9.18605 4.91751 10.4884C4.81778 10.6386 4.70143 10.7221 4.56845 10.7388C4.43548 10.7555 4.31913 10.7221 4.2194 10.6386C4.10305 10.5552 4.03241 10.4508 4.00748 10.3256C3.98255 10.2004 4.01995 10.071 4.11967 9.93739C5.15021 8.51819 6.44252 7.41622 7.99663 6.63148C9.55074 5.84675 11.2087 5.45438 12.9706 5.45438ZM12.9706 7.80859C15.2145 7.80859 17.1426 8.55993 18.7549 10.0626C20.3672 11.5653 21.1733 13.427 21.1733 15.6476C21.1733 16.4824 20.8783 17.1795 20.2882 17.7388C19.6981 18.2982 18.9793 18.5778 18.1316 18.5778C17.2839 18.5778 16.5567 18.2982 15.95 17.7388C15.3433 17.1795 15.04 16.4824 15.04 15.6476C15.04 15.0966 14.8364 14.6333 14.4291 14.2576C14.0219 13.8819 13.5357 13.6941 12.9706 13.6941C12.4055 13.6941 11.9193 13.8819 11.5121 14.2576C11.1048 14.6333 10.9012 15.0966 10.9012 15.6476C10.9012 17.2671 11.3791 18.6196 12.3348 19.7048C13.2906 20.7901 14.5247 21.5498 16.0373 21.9839C16.1869 22.034 16.2866 22.1175 16.3365 22.2343C16.3863 22.3512 16.3946 22.4764 16.3614 22.61C16.3281 22.7269 16.2617 22.8271 16.1619 22.9106C16.0622 22.994 15.9375 23.0191 15.7879 22.9857C14.0593 22.5516 12.6465 21.6875 11.5495 20.3936C10.4525 19.0996 9.90395 17.5176 9.90395 15.6476C9.90395 14.8128 10.2031 14.1115 10.8015 13.5438C11.3999 12.9761 12.1229 12.6923 12.9706 12.6923C13.8183 12.6923 14.5413 12.9761 15.1397 13.5438C15.7381 14.1115 16.0373 14.8128 16.0373 15.6476C16.0373 16.1986 16.245 16.6619 16.6606 17.0376C17.0761 17.4132 17.5664 17.6011 18.1316 17.6011C18.6967 17.6011 19.1787 17.4132 19.5776 17.0376C19.9766 16.6619 20.176 16.1986 20.176 15.6476C20.176 13.7108 19.4696 12.0829 18.0568 10.7639C16.644 9.44484 14.9569 8.78533 12.9955 8.78533C11.0342 8.78533 9.34713 9.44484 7.9343 10.7639C6.52148 12.0829 5.81506 13.7024 5.81506 15.6225C5.81506 16.0233 5.85246 16.5242 5.92726 17.1252C6.00206 17.7263 6.18074 18.4275 6.4633 19.229C6.51317 19.3792 6.50901 19.5128 6.45084 19.6297C6.39266 19.7466 6.29709 19.8301 6.16412 19.8801C6.03114 19.9302 5.90233 19.9261 5.77767 19.8676C5.65301 19.8092 5.56574 19.7132 5.51588 19.5796C5.26656 18.9284 5.08788 18.2815 4.97984 17.6386C4.8718 16.9958 4.81778 16.3321 4.81778 15.6476C4.81778 13.427 5.61976 11.5653 7.22373 10.0626C8.82771 8.55993 10.7433 7.80859 12.9706 7.80859ZM12.9706 3C14.0344 3 15.0732 3.1294 16.0871 3.38819C17.101 3.64699 18.0817 4.01849 19.0291 4.50268C19.1787 4.58617 19.266 4.68634 19.2909 4.80322C19.3159 4.9201 19.3034 5.03697 19.2535 5.15385C19.2037 5.27072 19.1205 5.36255 19.0042 5.42934C18.8878 5.49612 18.7466 5.48778 18.5804 5.40429C17.6994 4.95349 16.7894 4.60704 15.8503 4.36494C14.9112 4.12284 13.9513 4.00179 12.9706 4.00179C12.0066 4.00179 11.0591 4.11449 10.1283 4.33989C9.19753 4.5653 8.30828 4.9201 7.46059 5.40429C7.32762 5.48778 7.19465 5.50865 7.06167 5.46691C6.9287 5.42516 6.82897 5.33751 6.76249 5.20394C6.696 5.07036 6.67938 4.94931 6.71262 4.84079C6.74587 4.73226 6.82897 4.63626 6.96195 4.55277C7.89275 4.05188 8.8651 3.66786 9.87901 3.40072C10.8929 3.13357 11.9235 3 12.9706 3ZM12.9706 10.2379C14.5164 10.2379 15.8461 10.7597 16.9598 11.8032C18.0734 12.8468 18.6302 14.1282 18.6302 15.6476C18.6302 15.7979 18.5845 15.9189 18.4931 16.0107C18.4017 16.1026 18.2812 16.1485 18.1316 16.1485C17.9986 16.1485 17.8822 16.1026 17.7825 16.0107C17.6828 15.9189 17.6329 15.7979 17.6329 15.6476C17.6329 14.3953 17.1717 13.3476 16.2492 12.5045C15.3267 11.6613 14.2338 11.2397 12.9706 11.2397C11.7074 11.2397 10.6228 11.6613 9.71695 12.5045C8.81108 13.3476 8.35815 14.3953 8.35815 15.6476C8.35815 17 8.59085 18.1479 9.05625 19.0912C9.52165 20.0346 10.2031 20.9821 11.1007 21.9338C11.2004 22.034 11.2503 22.1509 11.2503 22.2844C11.2503 22.418 11.2004 22.5349 11.1007 22.6351C11.001 22.7352 10.8846 22.7853 10.7516 22.7853C10.6187 22.7853 10.5023 22.7352 10.4026 22.6351C9.42192 21.5999 8.6698 20.5438 8.14623 19.4669C7.62265 18.39 7.36086 17.1169 7.36086 15.6476C7.36086 14.1282 7.90937 12.8468 9.00639 11.8032C10.1034 10.7597 11.4248 10.2379 12.9706 10.2379ZM12.9457 15.1467C13.0953 15.1467 13.2158 15.1968 13.3072 15.297C13.3986 15.3971 13.4443 15.514 13.4443 15.6476C13.4443 16.8998 13.8931 17.9267 14.7907 18.7281C15.6882 19.5295 16.7354 19.9302 17.9321 19.9302C18.0318 19.9302 18.1731 19.9219 18.356 19.9052C18.5388 19.8885 18.7299 19.8634 18.9294 19.8301C19.079 19.7967 19.2078 19.8175 19.3159 19.8927C19.4239 19.9678 19.4945 20.0805 19.5278 20.2308C19.561 20.3643 19.5361 20.4812 19.453 20.5814C19.3699 20.6816 19.2618 20.7484 19.1289 20.7818C18.8297 20.8652 18.5679 20.9112 18.3435 20.9195C18.1191 20.9278 17.982 20.932 17.9321 20.932C16.4528 20.932 15.1688 20.4311 14.0801 19.4293C12.9914 18.4275 12.447 17.167 12.447 15.6476C12.447 15.514 12.4927 15.3971 12.5842 15.297C12.6756 15.1968 12.7961 15.1467 12.9457 15.1467Z" stroke="#45536F" stroke-width="0.6" mask="url(#path-6-outside-1_1152_642)"/>
</svg>
