<svg width="30" height="30" viewBox="0 0 30 30" fill="none" xmlns="http://www.w3.org/2000/svg">
<path d="M14.9918 0C5.35773 0.06 0 5.46955 0 15.0259C0 24.4227 5.36318 29.9441 15.0082 30C24.7745 29.9427 29.8186 24.9041 30 14.9768C29.8336 5.38091 24.51 0.0613636 14.9918 0ZM15.0082 27.2727C6.79091 27.225 2.88818 23.325 2.72727 15C2.88136 6.79227 6.89864 2.77773 14.9918 2.72727C23.0018 2.77909 27.1336 6.91636 27.2727 14.9741C27.12 23.3155 23.2173 27.2236 15.0082 27.2727Z" fill="#31BABE"/>
<path d="M15.7733 13.1406H14.2269C13.4742 13.1406 12.8633 13.7515 12.8633 14.5043C12.8633 15.257 13.4742 15.8679 14.2269 15.8679H14.4096V20.5479C14.4096 21.3006 15.0206 21.9115 15.7733 21.9115C16.526 21.9115 17.1369 21.3006 17.1369 20.5479V14.5043C17.1369 13.7515 16.5274 13.1406 15.7733 13.1406Z" fill="#31BABE"/>
<path d="M15 10.8105C15.7523 10.8105 16.3622 10.2006 16.3622 9.44821C16.3622 8.69585 15.7523 8.08594 15 8.08594C14.2476 8.08594 13.6377 8.69585 13.6377 9.44821C13.6377 10.2006 14.2476 10.8105 15 10.8105Z" fill="#31BABE"/>
</svg>
