<svg width="149" height="29" viewBox="0 0 149 29" fill="none" xmlns="http://www.w3.org/2000/svg">
<path d="M16.8418 17.8086C16.8418 19.0482 16.5957 20.1465 16.1035 21.1035C15.6113 22.0514 14.8776 22.8581 13.9023 23.5234C13.0638 24.0977 12.1068 24.526 11.0312 24.8086C9.96484 25.0911 8.77539 25.2324 7.46289 25.2324C6.62435 25.2324 5.74023 25.1777 4.81055 25.0684C3.88086 24.959 2.91016 24.7812 1.89844 24.5352L0.927734 1.33398C1.36523 1.28841 1.79362 1.25195 2.21289 1.22461C2.64128 1.19727 3.05143 1.18359 3.44336 1.18359C4.57357 1.18359 5.62174 1.28841 6.58789 1.49805C7.55404 1.69857 8.43815 2.00846 9.24023 2.42773C10.2611 2.95638 11.0221 3.60807 11.5234 4.38281C12.0339 5.15755 12.2891 6.05534 12.2891 7.07617C12.2891 7.52279 12.2344 7.97852 12.125 8.44336C12.0156 8.89909 11.847 9.35938 11.6191 9.82422C13.1777 10.4896 14.4355 11.5651 15.3926 13.0508C16.3587 14.5273 16.8418 16.1133 16.8418 17.8086ZM8.46094 10.4121L7.85938 3.39844C7.73177 3.27083 7.51758 3.14779 7.2168 3.0293C6.92513 2.90169 6.54688 2.77865 6.08203 2.66016L5.07031 12.4766C5.83594 12.2305 6.5013 11.9342 7.06641 11.5879C7.64062 11.2415 8.10547 10.8496 8.46094 10.4121ZM12.0293 15.5938C12.0293 14.7734 11.8743 14.026 11.5645 13.3516C11.2637 12.6771 10.8079 12.0664 10.1973 11.5195C9.4681 12.1667 8.66602 12.7044 7.79102 13.1328C6.91602 13.5612 5.96354 13.8757 4.93359 14.0762L4.12695 22.7715C5.17513 22.735 6.15039 22.5436 7.05273 22.1973C7.95508 21.8509 8.79362 21.3587 9.56836 20.7207C10.3978 20.0371 11.013 19.2669 11.4141 18.4102C11.8242 17.5534 12.0293 16.6146 12.0293 15.5938ZM15.1191 17.6445C15.1191 17.3255 15.0371 17.084 14.873 16.9199C14.7181 16.7559 14.4766 16.6738 14.1484 16.6738C13.8203 16.6738 13.5742 16.7559 13.4102 16.9199C13.2461 17.084 13.1641 17.3255 13.1641 17.6445C13.1641 17.9727 13.2461 18.2188 13.4102 18.3828C13.5742 18.5378 13.8203 18.6152 14.1484 18.6152C14.4766 18.6152 14.7181 18.5378 14.873 18.3828C15.0371 18.2188 15.1191 17.9727 15.1191 17.6445ZM14.1074 20.8438C14.1074 20.5065 13.9844 20.2148 13.7383 19.9688C13.5013 19.7227 13.2051 19.5996 12.8496 19.5996C12.4941 19.5996 12.1934 19.7227 11.9473 19.9688C11.7103 20.2148 11.5918 20.5065 11.5918 20.8438C11.5918 21.1992 11.7103 21.5 11.9473 21.7461C12.1934 21.9831 12.4941 22.1016 12.8496 22.1016C13.2051 22.1016 13.5013 21.9831 13.7383 21.7461C13.9844 21.5 14.1074 21.1992 14.1074 20.8438ZM11.0449 22.9355C11.0449 22.6165 10.9629 22.375 10.7988 22.2109C10.6348 22.0469 10.3887 21.9648 10.0605 21.9648C9.74154 21.9648 9.5 22.0469 9.33594 22.2109C9.17188 22.375 9.08984 22.6165 9.08984 22.9355C9.08984 23.2637 9.17188 23.5098 9.33594 23.6738C9.5 23.8379 9.74154 23.9199 10.0605 23.9199C10.3887 23.9199 10.6348 23.8379 10.7988 23.6738C10.9629 23.5098 11.0449 23.2637 11.0449 22.9355ZM10.0605 14.6367C9.23112 15.6211 8.48372 16.6465 7.81836 17.7129C7.15299 18.7793 6.5651 19.8867 6.05469 21.0352L5.24805 21.0625C5.66732 19.8594 6.17773 18.6699 6.7793 17.4941C7.38997 16.3092 8.0918 15.138 8.88477 13.9805L10.0605 14.6367ZM32.7285 23.5918L32.7148 24.3301C31.3021 24.9681 29.903 25.4421 28.5176 25.752C27.1413 26.071 25.7786 26.2305 24.4297 26.2305C23.6823 26.2305 22.9987 26.1576 22.3789 26.0117C21.7591 25.8659 21.2031 25.6517 20.7109 25.3691C20.1276 25.0319 19.6855 24.599 19.3848 24.0703C19.0931 23.5417 18.9473 22.9264 18.9473 22.2246C18.9473 20.985 19.5671 19.8776 20.8066 18.9023C22.0553 17.9271 23.9147 17.084 26.3848 16.373C26.1842 15.7897 25.8424 15.3477 25.3594 15.0469C24.8854 14.7461 24.2793 14.5957 23.541 14.5957C22.748 14.5957 22.028 14.7598 21.3809 15.0879C20.7337 15.4069 20.1595 15.8809 19.6582 16.5098L18.9336 15.8125C19.6992 14.6367 20.6471 13.7526 21.7773 13.1602C22.9076 12.5586 24.2246 12.2578 25.7285 12.2578C26.9499 12.2578 28.0208 12.5996 28.9414 13.2832C29.8711 13.9577 30.6549 14.974 31.293 16.332C31.7943 17.3984 32.1634 18.5378 32.4004 19.75C32.6465 20.9531 32.7559 22.2337 32.7285 23.5918ZM30.6094 18.834C30.6094 18.5059 30.5273 18.2598 30.3633 18.0957C30.2083 17.9316 29.9668 17.8496 29.6387 17.8496C29.3105 17.8496 29.0599 17.9316 28.8867 18.0957C28.7227 18.2598 28.6406 18.5059 28.6406 18.834C28.6406 19.1621 28.7227 19.4082 28.8867 19.5723C29.0599 19.7272 29.3105 19.8047 29.6387 19.8047C29.9668 19.8047 30.2083 19.7272 30.3633 19.5723C30.5273 19.4082 30.6094 19.1621 30.6094 18.834ZM27.3555 22.5801C27.3555 21.7507 27.3145 20.9303 27.2324 20.1191C27.1595 19.3079 27.041 18.5059 26.877 17.7129C26.0202 17.959 25.2454 18.2233 24.5527 18.5059C23.8691 18.7793 23.2721 19.071 22.7617 19.3809L24.1562 25.0273C24.8854 25.0273 25.5143 24.9863 26.043 24.9043C26.5716 24.8223 26.9954 24.6901 27.3145 24.5078C27.3327 24.1797 27.3418 23.8561 27.3418 23.5371C27.3509 23.2181 27.3555 22.8991 27.3555 22.5801ZM31.1699 22.5254C31.1699 22.179 31.0469 21.8828 30.8008 21.6367C30.5638 21.3906 30.2676 21.2676 29.9121 21.2676C29.5658 21.2676 29.265 21.3861 29.0098 21.623C28.7637 21.86 28.6406 22.1608 28.6406 22.5254C28.6406 22.8809 28.7637 23.1771 29.0098 23.4141C29.265 23.651 29.5658 23.7695 29.9121 23.7695C30.2676 23.7695 30.5638 23.651 30.8008 23.4141C31.0469 23.168 31.1699 22.8717 31.1699 22.5254ZM42.4355 1.59375L39.6465 25L35.3125 24.5762L35.5176 23.332L37.1992 23.5645L37.2676 21.0625L35.3535 20.9395L35.4492 19.8047L37.2676 19.832L37.3086 17.4395L35.3125 17.3574L35.4492 16.3457H37.3359L37.377 13.7207L35.2168 13.584L35.3535 12.2168L37.4043 12.5859V10.3438L35.3535 10.1113L35.5176 8.99023L37.4453 8.94922L37.4727 6.58398L35.2441 6.47461L35.4902 5.18945L37.4727 5.39453L37.541 3.16602L35.1758 2.98828L35.3535 1.59375H42.4355ZM50.3926 9.22266L50.0508 10.0566L48.8613 9.44141C48.7337 9.60547 48.5924 9.73763 48.4375 9.83789C48.2826 9.93815 48.1094 10.0111 47.918 10.0566L48.1914 11.1777L47.2617 11.3145L47.0293 10.1387C46.8835 10.1113 46.7376 10.0612 46.5918 9.98828C46.4551 9.90625 46.3229 9.8151 46.1953 9.71484L45.293 10.5488L44.6641 9.82422L45.7168 9.05859C45.6257 8.88542 45.571 8.70312 45.5527 8.51172C45.5436 8.32031 45.5618 8.11523 45.6074 7.89648L44.3906 7.13086L44.8418 6.39258L45.9629 7.1582C46.0723 7.02148 46.1953 6.90755 46.332 6.81641C46.4779 6.71615 46.6419 6.63867 46.8242 6.58398L46.5918 4.9707H47.4668L47.5215 6.47461C47.722 6.50195 47.9043 6.54753 48.0684 6.61133C48.2324 6.67513 48.3874 6.75716 48.5332 6.85742L49.4902 6.0918L50.1191 6.7207L49.0254 7.45898C49.0983 7.55924 49.1484 7.71419 49.1758 7.92383C49.2031 8.13346 49.2122 8.39779 49.2031 8.7168L50.3926 9.22266ZM49.9277 26.5723L44.1719 25.834L46.3047 12.5176H48.8613L49.9277 26.5723ZM48.3008 19.5176C48.3008 19.1986 48.2188 18.957 48.0547 18.793C47.8997 18.6289 47.6582 18.5469 47.3301 18.5469C46.9928 18.5469 46.7422 18.6289 46.5781 18.793C46.4141 18.957 46.332 19.1986 46.332 19.5176C46.332 19.8457 46.4141 20.0918 46.5781 20.2559C46.7422 20.4199 46.9928 20.502 47.3301 20.502C47.6582 20.502 47.8997 20.4199 48.0547 20.2559C48.2188 20.0918 48.3008 19.8457 48.3008 19.5176ZM48.3008 23.2227C48.3008 22.8763 48.1777 22.5801 47.9316 22.334C47.6855 22.0879 47.3848 21.9648 47.0293 21.9648C46.6921 21.9648 46.4004 22.0879 46.1543 22.334C45.9082 22.5801 45.7852 22.8763 45.7852 23.2227C45.7852 23.569 45.9082 23.8652 46.1543 24.1113C46.4004 24.3483 46.6921 24.4668 47.0293 24.4668C47.3848 24.4668 47.6855 24.3483 47.9316 24.1113C48.1777 23.8652 48.3008 23.569 48.3008 23.2227Z" fill="#6896C6"/>
<path d="M66.4707 23.5918L66.457 24.3301C65.0443 24.9681 63.6452 25.4421 62.2598 25.752C60.8835 26.071 59.5208 26.2305 58.1719 26.2305C57.4245 26.2305 56.7409 26.1576 56.1211 26.0117C55.5013 25.8659 54.9453 25.6517 54.4531 25.3691C53.8698 25.0319 53.4277 24.599 53.127 24.0703C52.8353 23.5417 52.6895 22.9264 52.6895 22.2246C52.6895 20.985 53.3092 19.8776 54.5488 18.9023C55.7975 17.9271 57.6569 17.084 60.127 16.373C59.9264 15.7897 59.5846 15.3477 59.1016 15.0469C58.6276 14.7461 58.0215 14.5957 57.2832 14.5957C56.4902 14.5957 55.7702 14.7598 55.123 15.0879C54.4759 15.4069 53.9017 15.8809 53.4004 16.5098L52.6758 15.8125C53.4414 14.6367 54.3893 13.7526 55.5195 13.1602C56.6497 12.5586 57.9668 12.2578 59.4707 12.2578C60.6921 12.2578 61.763 12.5996 62.6836 13.2832C63.6133 13.9577 64.3971 14.974 65.0352 16.332C65.5365 17.3984 65.9056 18.5378 66.1426 19.75C66.3887 20.9531 66.498 22.2337 66.4707 23.5918ZM64.3516 18.834C64.3516 18.5059 64.2695 18.2598 64.1055 18.0957C63.9505 17.9316 63.709 17.8496 63.3809 17.8496C63.0527 17.8496 62.8021 17.9316 62.6289 18.0957C62.4648 18.2598 62.3828 18.5059 62.3828 18.834C62.3828 19.1621 62.4648 19.4082 62.6289 19.5723C62.8021 19.7272 63.0527 19.8047 63.3809 19.8047C63.709 19.8047 63.9505 19.7272 64.1055 19.5723C64.2695 19.4082 64.3516 19.1621 64.3516 18.834ZM61.0977 22.5801C61.0977 21.7507 61.0566 20.9303 60.9746 20.1191C60.9017 19.3079 60.7832 18.5059 60.6191 17.7129C59.7624 17.959 58.9876 18.2233 58.2949 18.5059C57.6113 18.7793 57.0143 19.071 56.5039 19.3809L57.8984 25.0273C58.6276 25.0273 59.2565 24.9863 59.7852 24.9043C60.3138 24.8223 60.7376 24.6901 61.0566 24.5078C61.0749 24.1797 61.084 23.8561 61.084 23.5371C61.0931 23.2181 61.0977 22.8991 61.0977 22.5801ZM64.9121 22.5254C64.9121 22.179 64.7891 21.8828 64.543 21.6367C64.306 21.3906 64.0098 21.2676 63.6543 21.2676C63.3079 21.2676 63.0072 21.3861 62.752 21.623C62.5059 21.86 62.3828 22.1608 62.3828 22.5254C62.3828 22.8809 62.5059 23.1771 62.752 23.4141C63.0072 23.651 63.3079 23.7695 63.6543 23.7695C64.0098 23.7695 64.306 23.651 64.543 23.4141C64.7891 23.168 64.9121 22.8717 64.9121 22.5254ZM82.002 14.418L80.6758 14.9102C80.6758 14.9831 80.6803 15.0924 80.6895 15.2383C80.6986 15.3841 80.7031 15.498 80.7031 15.5801C80.7031 15.8171 80.6758 16.0404 80.6211 16.25C80.5755 16.4505 80.5026 16.6374 80.4023 16.8105L81.5781 17.6445L80.8398 18.3691L79.8008 17.5352C79.6549 17.6719 79.4863 17.7995 79.2949 17.918C79.1126 18.0365 78.9076 18.1549 78.6797 18.2734L77.9824 17.3164C78.1283 17.1341 78.2331 16.9518 78.2969 16.7695C78.3698 16.5872 78.4062 16.4049 78.4062 16.2227C78.4062 15.849 78.2786 15.5664 78.0234 15.375C77.7682 15.1836 77.3854 15.0879 76.875 15.0879C76.3099 15.0879 75.7083 15.3932 75.0703 16.0039C74.4323 16.6055 73.7578 17.5078 73.0469 18.7109L73.252 26.2305L68.5625 25.5332L70.6953 12.6543L72.8555 12.2168L72.9648 16.25C73.2565 15.8398 73.5391 15.4753 73.8125 15.1562C74.0859 14.8372 74.3503 14.5592 74.6055 14.3223L74.0176 12.9961L74.9473 12.5176L75.4395 13.6523C75.7585 13.4609 76.082 13.3014 76.4102 13.1738C76.7474 13.0371 77.0892 12.9414 77.4355 12.8867L77.4766 11.5195L78.4746 11.6152L78.2695 12.8594C78.7799 12.8867 79.2129 13.0052 79.5684 13.2148C79.9329 13.4154 80.2109 13.7025 80.4023 14.0762L81.6465 13.4199L82.002 14.418ZM72.1855 20.0098C72.1855 19.7272 72.1126 19.513 71.9668 19.3672C71.821 19.2122 71.5931 19.1348 71.2832 19.1348C71.0007 19.1348 70.7865 19.2122 70.6406 19.3672C70.4948 19.513 70.4219 19.7272 70.4219 20.0098C70.4219 20.3014 70.4948 20.5202 70.6406 20.666C70.7865 20.8027 71.0007 20.8711 71.2832 20.8711C71.5931 20.8711 71.821 20.8027 71.9668 20.666C72.1126 20.5202 72.1855 20.3014 72.1855 20.0098ZM72.1172 23.3594C72.1172 23.0404 72.0078 22.7715 71.7891 22.5527C71.5794 22.3249 71.3197 22.2109 71.0098 22.2109C70.709 22.2109 70.4447 22.3249 70.2168 22.5527C69.998 22.7715 69.8887 23.0404 69.8887 23.3594C69.8887 23.7331 69.9798 24.0111 70.1621 24.1934C70.3535 24.3757 70.6361 24.4668 71.0098 24.4668C71.3926 24.4668 71.6706 24.3757 71.8438 24.1934C72.026 24.0111 72.1172 23.7331 72.1172 23.3594ZM97.8613 23.9609C97.6335 24.1888 97.4284 24.3939 97.2461 24.5762C97.0638 24.7493 96.9043 24.8906 96.7676 25L97.793 26.5312L96.8359 27.0918L95.7969 25.8066C95.4323 26.0254 95.0449 26.2077 94.6348 26.3535C94.2246 26.5085 93.7871 26.6133 93.3223 26.668L93.2949 28.2812L92.0645 28.1992L92.1738 26.709C91.7546 26.709 91.3079 26.6634 90.834 26.5723C90.36 26.4902 89.8633 26.3626 89.3438 26.1895L88.5781 27.8301L87.3477 27.1602L88.1816 25.6289C87.735 25.3828 87.3249 25.1003 86.9512 24.7812C86.5866 24.4531 86.263 24.084 85.9805 23.6738L84.5176 24.6035L83.9023 23.6328L85.502 22.7988C85.2923 22.3613 85.1283 21.9147 85.0098 21.459C84.8913 20.9941 84.8138 20.5202 84.7773 20.0371L83.3145 20.4062L82.8906 19.2031L84.7773 18.7793C84.8229 18.2689 84.9004 17.8086 85.0098 17.3984C85.1191 16.9883 85.2604 16.6237 85.4336 16.3047L84.1074 15.5117L84.7363 14.4727L86.0352 15.375C86.263 15.0924 86.5091 14.8372 86.7734 14.6094C87.0469 14.3815 87.334 14.181 87.6348 14.0078L86.5137 12.3809L87.7441 11.7793L88.6465 13.5156C88.9382 13.4245 89.2025 13.3516 89.4395 13.2969C89.6764 13.2422 89.8861 13.2012 90.0684 13.1738L90.4375 11.3828L91.4082 11.6836L91.1621 13.1055C91.5267 13.1055 91.873 13.151 92.2012 13.2422C92.5293 13.3333 92.8438 13.4701 93.1445 13.6523L94.498 12.3125L95.2637 12.9551L93.9785 14.3496C94.179 14.541 94.3659 14.7734 94.5391 15.0469C94.7122 15.3112 94.8672 15.6074 95.0039 15.9355L96.6035 15.4023L96.877 16.4141L95.332 16.9473C95.4049 17.1478 95.4642 17.3665 95.5098 17.6035C95.5645 17.8405 95.6146 18.0957 95.6602 18.3691L89.3027 19.4766V19.627C89.3027 20.2923 89.3711 20.9212 89.5078 21.5137C89.6536 22.097 89.8724 22.653 90.1641 23.1816C90.5104 23.8105 90.9251 24.2845 91.4082 24.6035C91.8913 24.9134 92.4336 25.0684 93.0352 25.0684C93.6549 25.0684 94.3066 24.9043 94.9902 24.5762C95.6738 24.248 96.3984 23.7467 97.1641 23.0723L97.8613 23.9609ZM92.2695 17.248C92.2331 16.847 92.0827 16.5462 91.8184 16.3457C91.5632 16.1452 91.194 16.0449 90.7109 16.0449C90.1185 16.0449 89.5671 16.2227 89.0566 16.5781C88.5462 16.9336 88.1999 17.3893 88.0176 17.9453L92.2695 17.248ZM114.596 24.4668L109.332 25.3965C109.405 22.6074 109.455 20.707 109.482 19.6953C109.51 18.6745 109.523 18.0365 109.523 17.7812C109.523 16.9336 109.387 16.3001 109.113 15.8809C108.84 15.4525 108.425 15.2383 107.869 15.2383C107.35 15.2383 106.803 15.4753 106.229 15.9492C105.663 16.4141 105.071 17.1159 104.451 18.0547L104.055 25.1367L101.58 25.4648L100.117 12.9277L104.793 11.9434L104.588 15.8809C105.262 14.9785 105.978 14.2995 106.734 13.8438C107.491 13.3789 108.284 13.1465 109.113 13.1465C110.207 13.1465 111.1 13.5566 111.793 14.377C112.495 15.1973 113.01 16.4323 113.338 18.082L114.596 24.4668ZM112.34 19.1074C112.34 18.8249 112.267 18.6107 112.121 18.4648C111.975 18.3099 111.757 18.2324 111.465 18.2324C111.173 18.2324 110.95 18.3099 110.795 18.4648C110.649 18.6107 110.576 18.8249 110.576 19.1074C110.576 19.4082 110.649 19.6361 110.795 19.791C110.95 19.9368 111.173 20.0098 111.465 20.0098C111.757 20.0098 111.975 19.9368 112.121 19.791C112.267 19.6361 112.34 19.4082 112.34 19.1074ZM112.846 22.4434C112.846 22.1335 112.732 21.8737 112.504 21.6641C112.276 21.4453 112.012 21.3359 111.711 21.3359C111.328 21.3359 111.041 21.4316 110.85 21.623C110.667 21.8053 110.576 22.0788 110.576 22.4434C110.576 22.8171 110.667 23.0996 110.85 23.291C111.041 23.4733 111.328 23.5645 111.711 23.5645C112.012 23.5645 112.276 23.4596 112.504 23.25C112.732 23.0312 112.846 22.7624 112.846 22.4434ZM125.834 3.72656C125.834 4.05469 125.752 4.30078 125.588 4.46484C125.433 4.61979 125.191 4.69727 124.863 4.69727C124.535 4.69727 124.289 4.61979 124.125 4.46484C123.961 4.30078 123.879 4.05469 123.879 3.72656C123.879 3.38932 123.961 3.13867 124.125 2.97461C124.289 2.81055 124.535 2.72852 124.863 2.72852C125.191 2.72852 125.433 2.81055 125.588 2.97461C125.752 3.13867 125.834 3.38932 125.834 3.72656ZM126.08 6.88477C126.08 7.22201 125.998 7.4681 125.834 7.62305C125.679 7.77799 125.438 7.85547 125.109 7.85547C124.79 7.85547 124.549 7.77799 124.385 7.62305C124.221 7.4681 124.139 7.22201 124.139 6.88477C124.139 6.57487 124.221 6.33789 124.385 6.17383C124.549 6.00065 124.79 5.91406 125.109 5.91406C125.438 5.91406 125.679 6.00065 125.834 6.17383C125.998 6.33789 126.08 6.57487 126.08 6.88477ZM126.463 10.2754C126.463 10.6126 126.381 10.8587 126.217 11.0137C126.062 11.1686 125.82 11.2461 125.492 11.2461C125.164 11.2461 124.918 11.1686 124.754 11.0137C124.59 10.8587 124.508 10.6126 124.508 10.2754C124.508 9.94727 124.59 9.70117 124.754 9.53711C124.918 9.37305 125.164 9.29102 125.492 9.29102C125.82 9.29102 126.062 9.37305 126.217 9.53711C126.381 9.70117 126.463 9.94727 126.463 10.2754ZM132.328 0.71875L130.373 25.8066L127.926 25.6016L127.789 22.1699C127.16 23.054 126.431 23.7194 125.602 24.166C124.781 24.6126 123.861 24.8359 122.84 24.8359C121.181 24.8359 119.773 24.2389 118.615 23.0449C117.458 21.8509 116.879 20.4199 116.879 18.752C116.879 17.8496 117.043 17.0293 117.371 16.291C117.708 15.5436 118.21 14.8783 118.875 14.2949C119.504 13.7389 120.206 13.3242 120.98 13.0508C121.755 12.7682 122.594 12.627 123.496 12.627C124.353 12.627 125.096 12.7409 125.725 12.9688C126.363 13.1966 126.9 13.5339 127.338 13.9805L126.777 1.96289L132.328 0.71875ZM127.543 18.5469C127.543 17.0247 127.165 15.8945 126.408 15.1562C125.652 14.418 124.512 14.0488 122.99 14.0488H122.73L122.416 15.8125L120.611 15.4707L120.475 16.4824L122.211 16.9062L122.033 18.1367L120.283 17.7129L120.105 18.6836L121.814 19.1758L121.609 20.2422L119.941 19.8047L119.668 20.9395L121.404 21.3359L121.131 23.0723C121.45 23.209 121.769 23.3138 122.088 23.3867C122.407 23.4505 122.721 23.4824 123.031 23.4824C123.678 23.4824 124.271 23.3594 124.809 23.1133C125.346 22.8581 125.839 22.4753 126.285 21.9648C126.704 21.4818 127.019 20.9577 127.229 20.3926C127.438 19.8184 127.543 19.2031 127.543 18.5469ZM148.393 23.5918L148.379 24.3301C146.966 24.9681 145.567 25.4421 144.182 25.752C142.805 26.071 141.443 26.2305 140.094 26.2305C139.346 26.2305 138.663 26.1576 138.043 26.0117C137.423 25.8659 136.867 25.6517 136.375 25.3691C135.792 25.0319 135.35 24.599 135.049 24.0703C134.757 23.5417 134.611 22.9264 134.611 22.2246C134.611 20.985 135.231 19.8776 136.471 18.9023C137.719 17.9271 139.579 17.084 142.049 16.373C141.848 15.7897 141.507 15.3477 141.023 15.0469C140.549 14.7461 139.943 14.5957 139.205 14.5957C138.412 14.5957 137.692 14.7598 137.045 15.0879C136.398 15.4069 135.824 15.8809 135.322 16.5098L134.598 15.8125C135.363 14.6367 136.311 13.7526 137.441 13.1602C138.572 12.5586 139.889 12.2578 141.393 12.2578C142.614 12.2578 143.685 12.5996 144.605 13.2832C145.535 13.9577 146.319 14.974 146.957 16.332C147.458 17.3984 147.827 18.5378 148.064 19.75C148.311 20.9531 148.42 22.2337 148.393 23.5918ZM146.273 18.834C146.273 18.5059 146.191 18.2598 146.027 18.0957C145.872 17.9316 145.631 17.8496 145.303 17.8496C144.975 17.8496 144.724 17.9316 144.551 18.0957C144.387 18.2598 144.305 18.5059 144.305 18.834C144.305 19.1621 144.387 19.4082 144.551 19.5723C144.724 19.7272 144.975 19.8047 145.303 19.8047C145.631 19.8047 145.872 19.7272 146.027 19.5723C146.191 19.4082 146.273 19.1621 146.273 18.834ZM143.02 22.5801C143.02 21.7507 142.979 20.9303 142.896 20.1191C142.824 19.3079 142.705 18.5059 142.541 17.7129C141.684 17.959 140.91 18.2233 140.217 18.5059C139.533 18.7793 138.936 19.071 138.426 19.3809L139.82 25.0273C140.549 25.0273 141.178 24.9863 141.707 24.9043C142.236 24.8223 142.66 24.6901 142.979 24.5078C142.997 24.1797 143.006 23.8561 143.006 23.5371C143.015 23.2181 143.02 22.8991 143.02 22.5801ZM146.834 22.5254C146.834 22.179 146.711 21.8828 146.465 21.6367C146.228 21.3906 145.932 21.2676 145.576 21.2676C145.23 21.2676 144.929 21.3861 144.674 21.623C144.428 21.86 144.305 22.1608 144.305 22.5254C144.305 22.8809 144.428 23.1771 144.674 23.4141C144.929 23.651 145.23 23.7695 145.576 23.7695C145.932 23.7695 146.228 23.651 146.465 23.4141C146.711 23.168 146.834 22.8717 146.834 22.5254Z" fill="#31BABE"/>
</svg>
