<svg width="28" height="27" viewBox="0 0 28 27" fill="none" xmlns="http://www.w3.org/2000/svg">
<rect x="1.75" y="1.75" width="24.5" height="23.5" fill="white" stroke="#45536F" stroke-width="1.5"/>
<rect x="23" y="5" width="5" height="17" fill="white"/>
<rect y="5" width="5" height="17" fill="white"/>
<rect x="5" width="18" height="4" fill="white"/>
<rect x="5" y="23" width="18" height="4" fill="white"/>
<path d="M22.25 19.2397H13.1982C13.0373 18.6146 12.6859 18.0626 12.1983 17.6692C11.7106 17.2757 11.1139 17.0625 10.5001 17.0625C9.88634 17.0625 9.28961 17.2757 8.80199 17.6692C8.31438 18.0626 7.96298 18.6146 7.802 19.2397H5.75C5.55109 19.2397 5.36032 19.3231 5.21967 19.4716C5.07902 19.6201 5 19.8214 5 20.0314C5 20.2413 5.07902 20.4427 5.21967 20.5912C5.36032 20.7396 5.55109 20.823 5.75 20.823H7.802C7.96298 21.4482 8.31438 22.0001 8.80199 22.3936C9.28961 22.7871 9.88634 23.0003 10.5001 23.0003C11.1139 23.0003 11.7106 22.7871 12.1983 22.3936C12.6859 22.0001 13.0373 21.4482 13.1982 20.823H22.25C22.4489 20.823 22.6397 20.7396 22.7803 20.5912C22.921 20.4427 23 20.2413 23 20.0314C23 19.8214 22.921 19.6201 22.7803 19.4716C22.6397 19.3231 22.4489 19.2397 22.25 19.2397ZM10.4998 21.4168C10.2402 21.4168 9.9864 21.3355 9.77056 21.1833C9.55472 21.0311 9.3865 20.8147 9.28716 20.5616C9.18782 20.3084 9.16183 20.0299 9.21247 19.7611C9.26311 19.4924 9.38812 19.2455 9.57167 19.0518C9.75523 18.858 9.98909 18.7261 10.2437 18.6726C10.4983 18.6192 10.7622 18.6466 11.002 18.7515C11.2419 18.8563 11.4468 19.0339 11.5911 19.2617C11.7353 19.4895 11.8123 19.7574 11.8123 20.0314C11.8117 20.3986 11.6732 20.7506 11.4272 21.0103C11.1812 21.27 10.8477 21.4162 10.4998 21.4168Z" fill="#45536F"/>
<path d="M22.25 12.7093H20.198C20.0373 12.0839 19.686 11.5318 19.1985 11.1382C18.7109 10.7445 18.1141 10.5312 17.5002 10.5312C16.8864 10.5312 16.2896 10.7445 15.802 11.1382C15.3145 11.5318 14.9632 12.0839 14.8025 12.7093H5.75C5.55109 12.7093 5.36032 12.7927 5.21967 12.9411C5.07902 13.0896 5 13.291 5 13.5009C5 13.7109 5.07902 13.9122 5.21967 14.0607C5.36032 14.2092 5.55109 14.2926 5.75 14.2926H14.8025C14.9632 14.9179 15.3145 15.47 15.802 15.8636C16.2896 16.2573 16.8864 16.4706 17.5002 16.4706C18.1141 16.4706 18.7109 16.2573 19.1985 15.8636C19.686 15.47 20.0373 14.9179 20.198 14.2926H22.25C22.4489 14.2926 22.6397 14.2092 22.7803 14.0607C22.921 13.9122 23 13.7109 23 13.5009C23 13.291 22.921 13.0896 22.7803 12.9411C22.6397 12.7927 22.4489 12.7093 22.25 12.7093ZM17.5002 14.8863C17.2407 14.8863 16.9869 14.805 16.7711 14.6528C16.5552 14.5006 16.387 14.2842 16.2877 14.0311C16.1883 13.7779 16.1623 13.4994 16.213 13.2306C16.2636 12.9619 16.3886 12.715 16.5722 12.5213C16.7557 12.3275 16.9896 12.1956 17.2442 12.1421C17.4988 12.0887 17.7627 12.1161 18.0025 12.221C18.2424 12.3258 18.4473 12.5034 18.5916 12.7312C18.7358 12.9591 18.8127 13.2269 18.8127 13.5009C18.8124 13.8682 18.6739 14.2203 18.4279 14.4801C18.1818 14.7398 17.8482 14.8859 17.5002 14.8863Z" fill="#45536F"/>
<path d="M5.75 7.76054H7.802C7.96298 8.38573 8.31438 8.93764 8.80199 9.33112C9.28961 9.7246 9.88634 9.93778 10.5001 9.93778C11.1139 9.93778 11.7106 9.7246 12.1983 9.33112C12.6859 8.93764 13.0373 8.38573 13.1982 7.76054H22.25C22.4489 7.76054 22.6397 7.67713 22.7803 7.52867C22.921 7.38021 23 7.17885 23 6.96889C23 6.75893 22.921 6.55757 22.7803 6.40911C22.6397 6.26065 22.4489 6.17724 22.25 6.17724H13.1982C13.0373 5.55205 12.6859 5.00014 12.1983 4.60666C11.7106 4.21318 11.1139 4 10.5001 4C9.88634 4 9.28961 4.21318 8.80199 4.60666C8.31438 5.00014 7.96298 5.55205 7.802 6.17724H5.75C5.55109 6.17724 5.36032 6.26065 5.21967 6.40911C5.07902 6.55757 5 6.75893 5 6.96889C5 7.17885 5.07902 7.38021 5.21967 7.52867C5.36032 7.67713 5.55109 7.76054 5.75 7.76054ZM10.4998 5.5835C10.7593 5.5835 11.0131 5.66476 11.2289 5.81698C11.4448 5.96921 11.613 6.18558 11.7123 6.43873C11.8117 6.69187 11.8377 6.97043 11.787 7.23917C11.7364 7.50791 11.6114 7.75476 11.4278 7.94851C11.2443 8.14226 11.0104 8.2742 10.7558 8.32766C10.5012 8.38111 10.2373 8.35368 9.99748 8.24882C9.75765 8.14396 9.55267 7.9664 9.40845 7.73857C9.26423 7.51074 9.18725 7.24289 9.18725 6.96889C9.18765 6.60159 9.32606 6.24946 9.57211 5.98974C9.81817 5.73002 10.1518 5.58392 10.4998 5.5835Z" fill="#45536F"/>
</svg>
