<svg width="26" height="25" viewBox="0 0 26 25" fill="none" xmlns="http://www.w3.org/2000/svg">
<rect x="0.75" y="0.75" width="24.5" height="23.5" fill="white" stroke="#45536F" stroke-width="1.5"/>
<rect x="22" y="4" width="4" height="17" fill="white"/>
<rect y="4" width="4" height="17" fill="white"/>
<rect x="4" width="18" height="3" fill="white"/>
<rect x="4" y="22" width="18" height="3" fill="white"/>
<path d="M17 12.0526C17.2833 12.0526 17.5208 11.9669 17.7125 11.7954C17.9042 11.6239 18 11.4114 18 11.1579C18 10.9044 17.9042 10.6919 17.7125 10.5204C17.5208 10.3489 17.2833 10.2632 17 10.2632C16.7167 10.2632 16.4792 10.3489 16.2875 10.5204C16.0958 10.6919 16 10.9044 16 11.1579C16 11.4114 16.0958 11.6239 16.2875 11.7954C16.4792 11.9669 16.7167 12.0526 17 12.0526ZM9 10.2632H14V8.47368H9V10.2632ZM5.5 21C4.93333 19.3 4.375 17.6037 3.825 15.9112C3.275 14.2186 3 12.4851 3 10.7105C3 9.3386 3.53333 8.17544 4.6 7.22105C5.66667 6.26667 6.96667 5.78947 8.5 5.78947H13.5C13.9833 5.22281 14.5708 4.78289 15.2625 4.46974C15.9542 4.15658 16.7 4 17.5 4C17.9167 4 18.2708 4.13048 18.5625 4.39145C18.8542 4.65241 19 4.9693 19 5.34211C19 5.43158 18.9875 5.52105 18.9625 5.61053C18.9375 5.7 18.9083 5.78202 18.875 5.85658C18.8083 6.02061 18.7458 6.18838 18.6875 6.35987C18.6292 6.53136 18.5833 6.70658 18.55 6.88553L20.825 8.92105H23V15.1618L20.175 15.9895L18.5 21H13V19.2105H11V21H5.5ZM7 19.2105H9V17.4211H15V19.2105H17L18.55 14.6026L21 13.8645V10.7105H20L16.5 7.57895C16.5 7.2807 16.5208 6.99364 16.5625 6.71776C16.6042 6.44189 16.6667 6.16228 16.75 5.87895C16.2667 5.99825 15.8417 6.20329 15.475 6.49408C15.1083 6.78487 14.8417 7.14649 14.675 7.57895H8.5C7.53333 7.57895 6.70833 7.88465 6.025 8.49605C5.34167 9.10746 5 9.84561 5 10.7105C5 12.1719 5.225 13.5998 5.675 14.9941C6.125 16.3884 6.56667 17.7939 7 19.2105Z" fill="#45536F"/>
</svg>
