<svg width="18" height="16" viewBox="0 0 18 16" fill="none" xmlns="http://www.w3.org/2000/svg">
<path d="M12.6 7.57895C12.855 7.57895 13.0688 7.49825 13.2413 7.33684C13.4138 7.17544 13.5 6.97544 13.5 6.73684C13.5 6.49825 13.4138 6.29825 13.2413 6.13684C13.0688 5.97544 12.855 5.89474 12.6 5.89474C12.345 5.89474 12.1313 5.97544 11.9588 6.13684C11.7863 6.29825 11.7 6.49825 11.7 6.73684C11.7 6.97544 11.7863 7.17544 11.9588 7.33684C12.1313 7.49825 12.345 7.57895 12.6 7.57895ZM5.4 5.89474H9.9V4.21053H5.4V5.89474ZM2.25 16C1.74 14.4 1.2375 12.8035 0.7425 11.2105C0.2475 9.61754 0 7.98597 0 6.31579C0 5.02456 0.48 3.92982 1.44 3.03158C2.4 2.13333 3.57 1.68421 4.95 1.68421H9.45C9.885 1.15088 10.4138 0.736842 11.0363 0.442105C11.6588 0.147368 12.33 0 13.05 0C13.425 0 13.7438 0.122807 14.0063 0.368421C14.2688 0.614035 14.4 0.912281 14.4 1.26316C14.4 1.34737 14.3888 1.43158 14.3663 1.51579C14.3438 1.6 14.3175 1.67719 14.2875 1.74737C14.2275 1.90175 14.1713 2.05965 14.1188 2.22105C14.0663 2.38246 14.025 2.54737 13.995 2.71579L16.0425 4.63158H18V10.5053L15.4575 11.2842L13.95 16H9V14.3158H7.2V16H2.25ZM3.6 14.3158H5.4V12.6316H10.8V14.3158H12.6L13.995 9.97895L16.2 9.28421V6.31579H15.3L12.15 3.36842C12.15 3.08772 12.1688 2.81754 12.2063 2.55789C12.2438 2.29825 12.3 2.03509 12.375 1.76842C11.94 1.8807 11.5575 2.07368 11.2275 2.34737C10.8975 2.62105 10.6575 2.9614 10.5075 3.36842H4.95C4.08 3.36842 3.3375 3.65614 2.7225 4.23158C2.1075 4.80702 1.8 5.50175 1.8 6.31579C1.8 7.69123 2.0025 9.03509 2.4075 10.3474C2.8125 11.6596 3.21 12.9825 3.6 14.3158Z" fill="#45536F"/>
</svg>
