<svg width="28" height="27" viewBox="0 0 28 27" fill="none" xmlns="http://www.w3.org/2000/svg">
<rect x="1.75" y="1.75" width="24.5" height="23.5" fill="white" stroke="#45536F" stroke-width="1.5"/>
<rect x="23" y="5" width="5" height="17" fill="white"/>
<rect y="5" width="5" height="17" fill="white"/>
<rect x="5" width="18" height="4" fill="white"/>
<rect x="5" y="23" width="18" height="4" fill="white"/>
<path d="M18.4 13C18.7117 13 18.9729 12.9042 19.1837 12.7125C19.3946 12.5208 19.5 12.2833 19.5 12C19.5 11.7167 19.3946 11.4792 19.1837 11.2875C18.9729 11.0958 18.7117 11 18.4 11C18.0883 11 17.8271 11.0958 17.6162 11.2875C17.4054 11.4792 17.3 11.7167 17.3 12C17.3 12.2833 17.4054 12.5208 17.6162 12.7125C17.8271 12.9042 18.0883 13 18.4 13ZM9.6 11H15.1V9H9.6V11ZM5.75 23C5.12667 21.1 4.5125 19.2042 3.9075 17.3125C3.3025 15.4208 3 13.4833 3 11.5C3 9.96667 3.58667 8.66667 4.76 7.6C5.93333 6.53333 7.36333 6 9.05 6H14.55C15.0817 5.36667 15.7279 4.875 16.4887 4.525C17.2496 4.175 18.07 4 18.95 4C19.4083 4 19.7979 4.14583 20.1187 4.4375C20.4396 4.72917 20.6 5.08333 20.6 5.5C20.6 5.6 20.5862 5.7 20.5587 5.8C20.5312 5.9 20.4992 5.99167 20.4625 6.075C20.3892 6.25833 20.3204 6.44583 20.2562 6.6375C20.1921 6.82917 20.1417 7.025 20.105 7.225L22.6075 9.5H25V16.475L21.8925 17.4L20.05 23H14V21H11.8V23H5.75ZM7.4 21H9.6V19H16.2V21H18.4L20.105 15.85L22.8 15.025V11.5H21.7L17.85 8C17.85 7.66667 17.8729 7.34583 17.9187 7.0375C17.9646 6.72917 18.0333 6.41667 18.125 6.1C17.5933 6.23333 17.1258 6.4625 16.7225 6.7875C16.3192 7.1125 16.0258 7.51667 15.8425 8H9.05C7.98667 8 7.07917 8.34167 6.3275 9.025C5.57583 9.70833 5.2 10.5333 5.2 11.5C5.2 13.1333 5.4475 14.7292 5.9425 16.2875C6.4375 17.8458 6.92333 19.4167 7.4 21Z" fill="#45536F"/>
</svg>
