<svg width="28" height="27" viewBox="0 0 28 27" fill="none" xmlns="http://www.w3.org/2000/svg">
<rect x="1.75" y="1.75" width="24.5" height="23.5" fill="white" stroke="#45536F" stroke-width="1.5"/>
<rect x="23" y="5" width="5" height="17" fill="white"/>
<rect y="5" width="5" height="17" fill="white"/>
<rect x="5" width="18" height="4" fill="white"/>
<rect x="5" y="23" width="18" height="4" fill="white"/>
<mask id="mask0_1273_651" style="mask-type:alpha" maskUnits="userSpaceOnUse" x="4" y="4" width="21" height="19">
<path d="M7.67273 22.9375C7.41258 22.9375 7.19451 22.8367 7.01852 22.635C6.84254 22.4334 6.75455 22.1835 6.75455 21.8854V20.8333C5.98939 20.8333 5.33902 20.5265 4.80341 19.9128C4.2678 19.299 4 18.5538 4 17.6771V12.4167C4 11.5399 4.2678 10.7947 4.80341 10.181C5.33902 9.56727 5.98939 9.26042 6.75455 9.26042V7.15625C6.75455 6.27951 7.02235 5.53429 7.55795 4.92057C8.09356 4.30686 8.74394 4 9.50909 4H18.6909C19.4561 4 20.1064 4.30686 20.642 4.92057C21.1777 5.53429 21.4455 6.27951 21.4455 7.15625V9.26042C22.2106 9.26042 22.861 9.56727 23.3966 10.181C23.9322 10.7947 24.2 11.5399 24.2 12.4167V17.6771C24.2 18.5538 23.9322 19.299 23.3966 19.9128C22.861 20.5265 22.2106 20.8333 21.4455 20.8333V21.8854C21.4455 22.1835 21.3575 22.4334 21.1815 22.635C21.0055 22.8367 20.7874 22.9375 20.5273 22.9375C20.2671 22.9375 20.0491 22.8367 19.8731 22.635C19.6971 22.4334 19.6091 22.1835 19.6091 21.8854V20.8333H8.59091V21.8854C8.59091 22.1835 8.50292 22.4334 8.32693 22.635C8.15095 22.8367 7.93288 22.9375 7.67273 22.9375ZM6.75455 18.7292H21.4455C21.7056 18.7292 21.9237 18.6283 22.0997 18.4267C22.2756 18.225 22.3636 17.9752 22.3636 17.6771V12.4167C22.3636 12.1186 22.2756 11.8687 22.0997 11.6671C21.9237 11.4654 21.7056 11.3646 21.4455 11.3646C21.1853 11.3646 20.9672 11.4654 20.7913 11.6671C20.6153 11.8687 20.5273 12.1186 20.5273 12.4167V16.625H7.67273V12.4167C7.67273 12.1186 7.58473 11.8687 7.40875 11.6671C7.23277 11.4654 7.0147 11.3646 6.75455 11.3646C6.49439 11.3646 6.27633 11.4654 6.10034 11.6671C5.92436 11.8687 5.83636 12.1186 5.83636 12.4167V17.6771C5.83636 17.9752 5.92436 18.225 6.10034 18.4267C6.27633 18.6283 6.49439 18.7292 6.75455 18.7292ZM9.50909 14.5208H18.6909V12.4167C18.6909 11.9432 18.7751 11.5136 18.9434 11.1279C19.1117 10.7421 19.3336 10.4002 19.6091 10.1021V7.15625C19.6091 6.85816 19.5211 6.60829 19.3451 6.40664C19.1691 6.20499 18.9511 6.10417 18.6909 6.10417H9.50909C9.24894 6.10417 9.03087 6.20499 8.85489 6.40664C8.6789 6.60829 8.59091 6.85816 8.59091 7.15625V10.1021C8.86636 10.4002 9.08826 10.7421 9.25659 11.1279C9.42492 11.5136 9.50909 11.9432 9.50909 12.4167V14.5208Z" fill="black"/>
</mask>
<g mask="url(#mask0_1273_651)">
<path d="M7.67273 22.9375C7.41258 22.9375 7.19451 22.8367 7.01852 22.635C6.84254 22.4334 6.75455 22.1835 6.75455 21.8854V20.8333C5.98939 20.8333 5.33902 20.5265 4.80341 19.9128C4.2678 19.299 4 18.5538 4 17.6771V12.4167C4 11.5399 4.2678 10.7947 4.80341 10.181C5.33902 9.56727 5.98939 9.26042 6.75455 9.26042V7.15625C6.75455 6.27951 7.02235 5.53429 7.55795 4.92057C8.09356 4.30686 8.74394 4 9.50909 4H18.6909C19.4561 4 20.1064 4.30686 20.642 4.92057C21.1777 5.53429 21.4455 6.27951 21.4455 7.15625V9.26042C22.2106 9.26042 22.861 9.56727 23.3966 10.181C23.9322 10.7947 24.2 11.5399 24.2 12.4167V17.6771C24.2 18.5538 23.9322 19.299 23.3966 19.9128C22.861 20.5265 22.2106 20.8333 21.4455 20.8333V21.8854C21.4455 22.1835 21.3575 22.4334 21.1815 22.635C21.0055 22.8367 20.7874 22.9375 20.5273 22.9375C20.2671 22.9375 20.0491 22.8367 19.8731 22.635C19.6971 22.4334 19.6091 22.1835 19.6091 21.8854V20.8333H8.59091V21.8854C8.59091 22.1835 8.50292 22.4334 8.32693 22.635C8.15095 22.8367 7.93288 22.9375 7.67273 22.9375ZM6.75455 18.7292H21.4455C21.7056 18.7292 21.9237 18.6283 22.0997 18.4267C22.2756 18.225 22.3636 17.9752 22.3636 17.6771V12.4167C22.3636 12.1186 22.2756 11.8687 22.0997 11.6671C21.9237 11.4654 21.7056 11.3646 21.4455 11.3646C21.1853 11.3646 20.9672 11.4654 20.7913 11.6671C20.6153 11.8687 20.5273 12.1186 20.5273 12.4167V16.625H7.67273V12.4167C7.67273 12.1186 7.58473 11.8687 7.40875 11.6671C7.23277 11.4654 7.0147 11.3646 6.75455 11.3646C6.49439 11.3646 6.27633 11.4654 6.10034 11.6671C5.92436 11.8687 5.83636 12.1186 5.83636 12.4167V17.6771C5.83636 17.9752 5.92436 18.225 6.10034 18.4267C6.27633 18.6283 6.49439 18.7292 6.75455 18.7292ZM9.50909 14.5208H18.6909V12.4167C18.6909 11.9432 18.7751 11.5136 18.9434 11.1279C19.1117 10.7421 19.3336 10.4002 19.6091 10.1021V7.15625C19.6091 6.85816 19.5211 6.60829 19.3451 6.40664C19.1691 6.20499 18.9511 6.10417 18.6909 6.10417H9.50909C9.24894 6.10417 9.03087 6.20499 8.85489 6.40664C8.6789 6.60829 8.59091 6.85816 8.59091 7.15625V10.1021C8.86636 10.4002 9.08826 10.7421 9.25659 11.1279C9.42492 11.5136 9.50909 11.9432 9.50909 12.4167V14.5208Z" fill="#45536F"/>
</g>
</svg>
