<svg width="16" height="15" viewBox="0 0 16 15" fill="none" xmlns="http://www.w3.org/2000/svg">
<mask id="mask0_1126_734" style="mask-type:alpha" maskUnits="userSpaceOnUse" x="0" y="0" width="16" height="15">
<path d="M2.90909 15C2.70303 15 2.5303 14.9201 2.39091 14.7604C2.25152 14.6007 2.18182 14.4028 2.18182 14.1667V13.3333C1.57576 13.3333 1.06061 13.0903 0.636364 12.6042C0.212121 12.1181 0 11.5278 0 10.8333V6.66667C0 5.97222 0.212121 5.38194 0.636364 4.89583C1.06061 4.40972 1.57576 4.16667 2.18182 4.16667V2.5C2.18182 1.80556 2.39394 1.21528 2.81818 0.729167C3.24242 0.243056 3.75758 0 4.36364 0H11.6364C12.2424 0 12.7576 0.243056 13.1818 0.729167C13.6061 1.21528 13.8182 1.80556 13.8182 2.5V4.16667C14.4242 4.16667 14.9394 4.40972 15.3636 4.89583C15.7879 5.38194 16 5.97222 16 6.66667V10.8333C16 11.5278 15.7879 12.1181 15.3636 12.6042C14.9394 13.0903 14.4242 13.3333 13.8182 13.3333V14.1667C13.8182 14.4028 13.7485 14.6007 13.6091 14.7604C13.4697 14.9201 13.297 15 13.0909 15C12.8848 15 12.7121 14.9201 12.5727 14.7604C12.4333 14.6007 12.3636 14.4028 12.3636 14.1667V13.3333H3.63636V14.1667C3.63636 14.4028 3.56667 14.6007 3.42727 14.7604C3.28788 14.9201 3.11515 15 2.90909 15ZM2.18182 11.6667H13.8182C14.0242 11.6667 14.197 11.5868 14.3364 11.4271C14.4758 11.2674 14.5455 11.0694 14.5455 10.8333V6.66667C14.5455 6.43056 14.4758 6.23264 14.3364 6.07292C14.197 5.91319 14.0242 5.83333 13.8182 5.83333C13.6121 5.83333 13.4394 5.91319 13.3 6.07292C13.1606 6.23264 13.0909 6.43056 13.0909 6.66667V10H2.90909V6.66667C2.90909 6.43056 2.83939 6.23264 2.7 6.07292C2.56061 5.91319 2.38788 5.83333 2.18182 5.83333C1.97576 5.83333 1.80303 5.91319 1.66364 6.07292C1.52424 6.23264 1.45455 6.43056 1.45455 6.66667V10.8333C1.45455 11.0694 1.52424 11.2674 1.66364 11.4271C1.80303 11.5868 1.97576 11.6667 2.18182 11.6667ZM4.36364 8.33333H11.6364V6.66667C11.6364 6.29167 11.703 5.95139 11.8364 5.64583C11.9697 5.34028 12.1455 5.06944 12.3636 4.83333V2.5C12.3636 2.26389 12.2939 2.06597 12.1545 1.90625C12.0152 1.74653 11.8424 1.66667 11.6364 1.66667H4.36364C4.15758 1.66667 3.98485 1.74653 3.84545 1.90625C3.70606 2.06597 3.63636 2.26389 3.63636 2.5V4.83333C3.85455 5.06944 4.0303 5.34028 4.16364 5.64583C4.29697 5.95139 4.36364 6.29167 4.36364 6.66667V8.33333Z" fill="black"/>
</mask>
<g mask="url(#mask0_1126_734)">
<path d="M2.90909 15C2.70303 15 2.5303 14.9201 2.39091 14.7604C2.25152 14.6007 2.18182 14.4028 2.18182 14.1667V13.3333C1.57576 13.3333 1.06061 13.0903 0.636364 12.6042C0.212121 12.1181 0 11.5278 0 10.8333V6.66667C0 5.97222 0.212121 5.38194 0.636364 4.89583C1.06061 4.40972 1.57576 4.16667 2.18182 4.16667V2.5C2.18182 1.80556 2.39394 1.21528 2.81818 0.729167C3.24242 0.243056 3.75758 0 4.36364 0H11.6364C12.2424 0 12.7576 0.243056 13.1818 0.729167C13.6061 1.21528 13.8182 1.80556 13.8182 2.5V4.16667C14.4242 4.16667 14.9394 4.40972 15.3636 4.89583C15.7879 5.38194 16 5.97222 16 6.66667V10.8333C16 11.5278 15.7879 12.1181 15.3636 12.6042C14.9394 13.0903 14.4242 13.3333 13.8182 13.3333V14.1667C13.8182 14.4028 13.7485 14.6007 13.6091 14.7604C13.4697 14.9201 13.297 15 13.0909 15C12.8848 15 12.7121 14.9201 12.5727 14.7604C12.4333 14.6007 12.3636 14.4028 12.3636 14.1667V13.3333H3.63636V14.1667C3.63636 14.4028 3.56667 14.6007 3.42727 14.7604C3.28788 14.9201 3.11515 15 2.90909 15ZM2.18182 11.6667H13.8182C14.0242 11.6667 14.197 11.5868 14.3364 11.4271C14.4758 11.2674 14.5455 11.0694 14.5455 10.8333V6.66667C14.5455 6.43056 14.4758 6.23264 14.3364 6.07292C14.197 5.91319 14.0242 5.83333 13.8182 5.83333C13.6121 5.83333 13.4394 5.91319 13.3 6.07292C13.1606 6.23264 13.0909 6.43056 13.0909 6.66667V10H2.90909V6.66667C2.90909 6.43056 2.83939 6.23264 2.7 6.07292C2.56061 5.91319 2.38788 5.83333 2.18182 5.83333C1.97576 5.83333 1.80303 5.91319 1.66364 6.07292C1.52424 6.23264 1.45455 6.43056 1.45455 6.66667V10.8333C1.45455 11.0694 1.52424 11.2674 1.66364 11.4271C1.80303 11.5868 1.97576 11.6667 2.18182 11.6667ZM4.36364 8.33333H11.6364V6.66667C11.6364 6.29167 11.703 5.95139 11.8364 5.64583C11.9697 5.34028 12.1455 5.06944 12.3636 4.83333V2.5C12.3636 2.26389 12.2939 2.06597 12.1545 1.90625C12.0152 1.74653 11.8424 1.66667 11.6364 1.66667H4.36364C4.15758 1.66667 3.98485 1.74653 3.84545 1.90625C3.70606 2.06597 3.63636 2.26389 3.63636 2.5V4.83333C3.85455 5.06944 4.0303 5.34028 4.16364 5.64583C4.29697 5.95139 4.36364 6.29167 4.36364 6.66667V8.33333Z" fill="#45536F"/>
</g>
</svg>
