<svg width="26" height="25" viewBox="0 0 26 25" fill="none" xmlns="http://www.w3.org/2000/svg">
<rect x="0.75" y="0.75" width="24.5" height="23.5" fill="white" stroke="#45536F" stroke-width="1.5"/>
<rect x="22" y="4" width="4" height="17" fill="white"/>
<rect y="4" width="4" height="17" fill="white"/>
<rect x="4" width="18" height="3" fill="white"/>
<rect x="4" y="22" width="18" height="3" fill="white"/>
<mask id="mask0_1126_760" style="mask-type:alpha" maskUnits="userSpaceOnUse" x="3" y="4" width="20" height="18">
<path d="M6.63636 22C6.37879 22 6.16288 21.9042 5.98864 21.7125C5.81439 21.5208 5.72727 21.2833 5.72727 21V20C4.9697 20 4.32576 19.7083 3.79545 19.125C3.26515 18.5417 3 17.8333 3 17V12C3 11.1667 3.26515 10.4583 3.79545 9.875C4.32576 9.29167 4.9697 9 5.72727 9V7C5.72727 6.16667 5.99242 5.45833 6.52273 4.875C7.05303 4.29167 7.69697 4 8.45455 4H17.5455C18.303 4 18.947 4.29167 19.4773 4.875C20.0076 5.45833 20.2727 6.16667 20.2727 7V9C21.0303 9 21.6742 9.29167 22.2045 9.875C22.7348 10.4583 23 11.1667 23 12V17C23 17.8333 22.7348 18.5417 22.2045 19.125C21.6742 19.7083 21.0303 20 20.2727 20V21C20.2727 21.2833 20.1856 21.5208 20.0114 21.7125C19.8371 21.9042 19.6212 22 19.3636 22C19.1061 22 18.8902 21.9042 18.7159 21.7125C18.5417 21.5208 18.4545 21.2833 18.4545 21V20H7.54545V21C7.54545 21.2833 7.45833 21.5208 7.28409 21.7125C7.10985 21.9042 6.89394 22 6.63636 22ZM5.72727 18H20.2727C20.5303 18 20.7462 17.9042 20.9205 17.7125C21.0947 17.5208 21.1818 17.2833 21.1818 17V12C21.1818 11.7167 21.0947 11.4792 20.9205 11.2875C20.7462 11.0958 20.5303 11 20.2727 11C20.0152 11 19.7992 11.0958 19.625 11.2875C19.4508 11.4792 19.3636 11.7167 19.3636 12V16H6.63636V12C6.63636 11.7167 6.54924 11.4792 6.375 11.2875C6.20076 11.0958 5.98485 11 5.72727 11C5.4697 11 5.25379 11.0958 5.07955 11.2875C4.9053 11.4792 4.81818 11.7167 4.81818 12V17C4.81818 17.2833 4.9053 17.5208 5.07955 17.7125C5.25379 17.9042 5.4697 18 5.72727 18ZM8.45455 14H17.5455V12C17.5455 11.55 17.6288 11.1417 17.7955 10.775C17.9621 10.4083 18.1818 10.0833 18.4545 9.8V7C18.4545 6.71667 18.3674 6.47917 18.1932 6.2875C18.0189 6.09583 17.803 6 17.5455 6H8.45455C8.19697 6 7.98106 6.09583 7.80682 6.2875C7.63258 6.47917 7.54545 6.71667 7.54545 7V9.8C7.81818 10.0833 8.03788 10.4083 8.20455 10.775C8.37121 11.1417 8.45455 11.55 8.45455 12V14Z" fill="black"/>
</mask>
<g mask="url(#mask0_1126_760)">
<path d="M6.73737 22C6.47264 22 6.25074 21.9042 6.07165 21.7125C5.89257 21.5208 5.80303 21.2833 5.80303 21V20C5.02441 20 4.36258 19.7083 3.81755 19.125C3.27252 18.5417 3 17.8333 3 17V12C3 11.1667 3.27252 10.4583 3.81755 9.875C4.36258 9.29167 5.02441 9 5.80303 9V7C5.80303 6.16667 6.07555 5.45833 6.62058 4.875C7.16561 4.29167 7.82744 4 8.60606 4H17.9495C18.7281 4 19.3899 4.29167 19.935 4.875C20.48 5.45833 20.7525 6.16667 20.7525 7V9C21.5311 9 22.193 9.29167 22.738 9.875C23.283 10.4583 23.5556 11.1667 23.5556 12V17C23.5556 17.8333 23.283 18.5417 22.738 19.125C22.193 19.7083 21.5311 20 20.7525 20V21C20.7525 21.2833 20.663 21.5208 20.4839 21.7125C20.3048 21.9042 20.0829 22 19.8182 22C19.5535 22 19.3315 21.9042 19.1525 21.7125C18.9734 21.5208 18.8838 21.2833 18.8838 21V20H7.67172V21C7.67172 21.2833 7.58218 21.5208 7.40309 21.7125C7.22401 21.9042 7.0021 22 6.73737 22ZM5.80303 18H20.7525C21.0173 18 21.2392 17.9042 21.4182 17.7125C21.5973 17.5208 21.6869 17.2833 21.6869 17V12C21.6869 11.7167 21.5973 11.4792 21.4182 11.2875C21.2392 11.0958 21.0173 11 20.7525 11C20.4878 11 20.2659 11.0958 20.0868 11.2875C19.9077 11.4792 19.8182 11.7167 19.8182 12V16H6.73737V12C6.73737 11.7167 6.64783 11.4792 6.46875 11.2875C6.28967 11.0958 6.06776 11 5.80303 11C5.5383 11 5.31639 11.0958 5.13731 11.2875C4.95823 11.4792 4.86869 11.7167 4.86869 12V17C4.86869 17.2833 4.95823 17.5208 5.13731 17.7125C5.31639 17.9042 5.5383 18 5.80303 18ZM8.60606 14H17.9495V12C17.9495 11.55 18.0351 11.1417 18.2064 10.775C18.3777 10.4083 18.6035 10.0833 18.8838 9.8V7C18.8838 6.71667 18.7943 6.47917 18.6152 6.2875C18.4361 6.09583 18.2142 6 17.9495 6H8.60606C8.34133 6 8.11942 6.09583 7.94034 6.2875C7.76126 6.47917 7.67172 6.71667 7.67172 7V9.8C7.95202 10.0833 8.17782 10.4083 8.34912 10.775C8.52041 11.1417 8.60606 11.55 8.60606 12V14Z" fill="#45536F"/>
</g>
</svg>
