<svg width="17" height="17" viewBox="0 0 17 17" fill="none" xmlns="http://www.w3.org/2000/svg">
<path d="M16.3762 0.624343C16.1222 0.367302 15.8062 0.180105 15.4588 0.080837C15.1113 -0.0184305 14.7441 -0.0264124 14.3926 0.0576623L3.0578 2.4448C2.40504 2.53432 1.79024 2.80428 1.28263 3.22428C0.775016 3.64429 0.394762 4.19766 0.184687 4.82208C-0.025389 5.44649 -0.056942 6.11715 0.0935809 6.75853C0.244104 7.39991 0.570724 7.98653 1.03666 8.45233L2.25374 9.66857C2.31961 9.73441 2.37185 9.8126 2.40747 9.89866C2.44308 9.98471 2.46138 10.0769 2.46131 10.1701V12.4141C2.46287 12.7297 2.53551 13.0408 2.67383 13.3244L2.66817 13.3293L2.68659 13.3477C2.89416 13.7651 3.23319 14.1026 3.65146 14.3083L3.66988 14.3267L3.67484 14.321C3.95847 14.4593 4.26961 14.532 4.58517 14.5335H6.82947C7.01724 14.5334 7.19738 14.6078 7.33032 14.7404L8.54669 15.9566C8.87294 16.2864 9.26125 16.5484 9.68923 16.7275C10.1172 16.9066 10.5764 16.9992 11.0404 17C11.427 16.9995 11.811 16.9364 12.1774 16.813C12.7962 16.6098 13.3458 16.2378 13.7644 15.7389C14.183 15.24 14.4538 14.6341 14.5464 13.9895L16.9373 2.6311C17.0257 2.27667 17.0205 1.90534 16.9222 1.55353C16.8238 1.20172 16.6357 0.881524 16.3762 0.624343ZM3.25687 8.66838L2.03908 7.45214C1.75551 7.17543 1.55677 6.82358 1.46617 6.43789C1.37557 6.0522 1.39688 5.64867 1.5276 5.27467C1.65433 4.89097 1.88862 4.55174 2.20259 4.29733C2.51655 4.04292 2.897 3.88402 3.29867 3.83955L14.5209 1.4772L3.87674 12.1216V10.1701C3.87782 9.89123 3.82358 9.61493 3.71718 9.35717C3.61079 9.09941 3.45433 8.8653 3.25687 8.66838ZM13.1543 13.7473C13.0999 14.1385 12.9375 14.5068 12.6854 14.8109C12.4333 15.115 12.1013 15.3428 11.7269 15.4688C11.3525 15.5947 10.9504 15.6139 10.5657 15.524C10.181 15.4341 9.82895 15.2388 9.54912 14.9599L8.33062 13.7416C8.13394 13.5438 7.9 13.3871 7.64233 13.2803C7.38466 13.1736 7.10838 13.119 6.82947 13.1197H4.87775L15.5233 2.47881L13.1543 13.7473Z" fill="white"/>
</svg>
