<?xml version="1.0" encoding="UTF-8"?>
<svg version="1.1" xmlns="http://www.w3.org/2000/svg" width="647" height="541">
<path d="M0 0 C4.92477009 3.33232946 7.58161937 6.51255395 10 12 C12.08496868 24.62663271 7.84935889 38.09887265 5.21875 50.35546875 C4.70054265 52.82150759 4.18365914 55.28782493 3.66798401 57.75439453 C2.55084618 63.08523891 1.42547142 68.41423683 0.29275513 73.74179077 C-1.5378502 82.35315806 -3.34776739 90.96881068 -5.15454102 99.58520508 C-5.7839355 102.58581619 -6.41343158 105.58640598 -7.04295349 108.58699036 C-7.2007927 109.33941275 -7.35863191 110.09183514 -7.52125412 110.86705822 C-8.66241313 116.30587554 -9.80625583 121.74412465 -10.95106506 127.18217468 C-15.66077048 149.5593489 -20.31575953 171.94744332 -24.93359375 194.34375 C-25.17990461 195.53826224 -25.17990461 195.53826224 -25.43119144 196.75690603 C-27.09764814 204.8390658 -28.76303512 212.92144571 -30.42768335 221.00397813 C-33.78547632 237.30731812 -37.15043821 253.60917796 -40.51571751 269.91097403 C-41.01894977 272.34874567 -41.52214143 274.78652569 -42.02532196 277.22430801 C-48.93717863 310.71004042 -55.86210797 344.19305642 -62.80107385 377.67318171 C-63.80431678 382.51411045 -64.8067633 387.35520359 -65.80880737 392.19638062 C-68.70720764 406.19800858 -71.61311194 420.19803746 -74.53636456 434.19450092 C-75.97967361 441.10504928 -77.4192078 448.01634637 -78.85290527 454.92889404 C-80.2805086 461.81122161 -81.71533353 468.69200545 -83.15773237 475.57124776 C-83.92729632 479.24247101 -84.6938912 482.91424968 -85.45264053 486.58772469 C-86.29152351 490.6484443 -87.14492784 494.7059833 -87.99951172 498.76342773 C-88.2441856 499.9586524 -88.48885948 501.15387707 -88.74094772 502.38532066 C-91.27406242 514.29239829 -94.53902248 525.10902354 -104.98046875 532.37890625 C-113.09872919 536.77022078 -121.98959186 538.06290923 -131 536 C-137.63886344 533.58761069 -143.30867462 530.04190856 -149.0625 526 C-149.88540527 525.42967041 -150.70831055 524.85934082 -151.55615234 524.27172852 C-157.49855778 520.12555799 -163.31807322 515.83012007 -169.08691406 511.44677734 C-173.75929662 507.90241156 -178.50733513 504.48678413 -183.3125 501.125 C-190.23296327 496.28011883 -197.05041759 491.30913707 -203.84082031 486.28393555 C-209.22452382 482.3019873 -214.63084545 478.35378449 -220.0625 474.4375 C-220.80177734 473.90447266 -221.54105469 473.37144531 -222.30273438 472.82226562 C-224.53463937 471.21412447 -226.76718791 469.60688142 -229 468 C-238.99741096 460.8051922 -248.96128337 453.56989828 -258.86791992 446.25048828 C-269.50544731 438.39937192 -280.23692461 430.67784828 -291 423 C-295.09892648 424.61029255 -297.76204813 427.57817148 -300.75 430.6875 C-304.70031551 434.72392593 -308.70353057 438.56524385 -313.0078125 442.2265625 C-316.34320797 445.19571847 -319.42519327 448.41818343 -322.5625 451.59375 C-325.25283906 454.24959753 -328.06573525 456.70135432 -330.9375 459.15625 C-333.38924689 461.34796313 -335.68885573 463.66067104 -338 466 C-341.52106323 469.56400302 -345.13186008 472.90304168 -348.9375 476.15625 C-352.28762254 479.15105651 -355.39376306 482.38633596 -358.55078125 485.58203125 C-361.3098302 488.30587702 -364.18501482 490.83739256 -367.140625 493.34375 C-369.03387084 495.03017066 -370.71794376 496.82596205 -372.4375 498.6875 C-378.05229692 504.2896794 -383.67440135 506.21730514 -391.5625 506.5 C-398.90009116 506.2348889 -403.87563154 504.39141229 -409.125 499.25 C-411.82554158 495.73014866 -413.32389545 491.92630667 -414.82156372 487.79257202 C-415.08063511 487.08889728 -415.3397065 486.38522254 -415.60662854 485.66022432 C-418.46105948 477.84600733 -421.10619677 469.96279832 -423.72998047 462.06884766 C-424.2724842 460.44405531 -424.815242 458.81934778 -425.35823059 457.19471741 C-426.81308795 452.83915495 -428.26422579 448.48236228 -429.71446371 444.12525988 C-431.23810044 439.54924233 -432.76469436 434.97421127 -434.290802 430.39901733 C-436.84641338 422.73580384 -439.39951677 415.07175822 -441.95117188 407.40722656 C-444.90258132 398.54206126 -447.85835614 389.67836024 -450.81633651 380.81538546 C-453.36216699 373.18695464 -455.90567003 365.55775076 -458.44720948 357.92788923 C-459.96276897 353.37809148 -461.47914003 348.82856857 -462.99761581 344.27974319 C-464.42034474 340.01731328 -465.84015812 335.75392345 -467.25768089 331.48975945 C-467.77910602 329.92283096 -468.30156216 328.35624514 -468.82510185 326.7900219 C-469.53695766 324.65988424 -470.24513988 322.52856081 -470.95236206 320.3968811 C-471.35015806 319.20273905 -471.74795406 318.00859699 -472.15780449 316.77826881 C-473 314 -473 314 -473 312 C-473.9728167 311.74293022 -473.9728167 311.74293022 -474.96528625 311.48066711 C-482.21891284 309.53656241 -489.38292416 307.3676437 -496.54296875 305.10546875 C-498.40266262 304.5213679 -500.26235837 303.93727302 -502.12212086 303.35339069 C-504.10684919 302.72998511 -506.09130377 302.10571514 -508.07568359 301.48120117 C-515.17765666 299.2463464 -522.28128855 297.01680791 -529.38671875 294.79296875 C-530.129575 294.56046291 -530.87243126 294.32795708 -531.63779831 294.08840561 C-543.72626773 290.30791953 -555.83612849 286.60081836 -567.95703125 282.92578125 C-569.6115205 282.42356515 -571.26599547 281.921302 -572.92045593 281.41899109 C-580.15256356 279.22408513 -587.38575332 277.03303652 -594.6237669 274.85767651 C-597.61860209 273.95605809 -600.6116615 273.04864875 -603.60433006 272.13986778 C-604.99158682 271.72005482 -606.37961865 271.30279277 -607.76848793 270.88834572 C-626.91390081 265.17307412 -626.91390081 265.17307412 -631.375 259.5 C-631.83648438 258.9328125 -632.29796875 258.365625 -632.7734375 257.78125 C-637.0497545 251.57105715 -636.66014629 245.36888294 -636 238 C-634.44214641 232.29082064 -631.12454654 227.99792117 -626 225 C-615.77180491 220.14022014 -605.08201885 216.38643055 -594.43429565 212.57000732 C-589.52928714 210.81090732 -584.62996818 209.0360938 -579.73046875 207.26171875 C-578.23626152 206.72088654 -578.23626152 206.72088654 -576.71186829 206.16912842 C-567.42873314 202.80373142 -558.17805335 199.35534646 -548.9375 195.875 C-545.62372873 194.62752229 -542.30992697 193.38012563 -538.99609375 192.1328125 C-538.13421448 191.80832626 -537.27233521 191.48384003 -536.38433838 191.14952087 C-525.66512843 187.11683319 -514.93092957 183.12435185 -504.19836426 179.12738037 C-486.68125183 172.60348896 -469.16822447 166.06899359 -451.66796875 159.5 C-450.56889631 159.0874572 -450.56889631 159.0874572 -449.44762039 158.6665802 C-445.70526745 157.26181392 -441.96297426 155.85688849 -438.22070312 154.4519043 C-412.16491908 144.66970758 -386.09358306 134.93094309 -360 125.25 C-358.4967537 124.69225399 -356.99350866 124.13450457 -355.49026489 123.57675171 C-354.3833868 123.16606367 -354.3833868 123.16606367 -353.25414753 122.7470789 C-349.64596082 121.40829877 -346.03780319 120.06944028 -342.4296875 118.73046875 C-341.73894827 118.47413855 -341.04820904 118.21780834 -340.33653831 117.95371056 C-329.25884321 113.84242651 -318.1867911 109.71640658 -307.125 105.5625 C-306.39186584 105.28721466 -305.65873169 105.01192932 -304.90338135 104.728302 C-300.90210653 103.22553156 -296.90119347 101.7217999 -292.90039062 100.21777344 C-279.56029519 95.20315107 -266.21806228 90.19422199 -252.875 85.1875 C-252.10824196 84.89976841 -251.34148392 84.61203682 -250.55149078 84.31558609 C-224.152314 74.40960441 -197.72926449 64.56905915 -171.29323483 54.76190186 C-167.69934981 53.42863232 -164.10550886 52.09524409 -160.51171875 50.76171875 C-159.82342295 50.50632072 -159.13512714 50.2509227 -158.42597389 49.98778534 C-146.8793463 45.70276345 -135.34138511 41.39504277 -123.8125 37.0625 C-103.59181188 29.46359975 -83.34990438 21.92199615 -63.10449219 14.38923645 C-57.30560081 12.23138809 -51.50779175 10.07067945 -45.71141052 7.90609741 C-42.41958937 6.67703984 -39.12717166 5.44958628 -35.83462524 4.22247314 C-34.33627905 3.66360952 -32.83820527 3.10401491 -31.34042358 2.54364014 C-29.31230675 1.78495224 -27.28323593 1.02887407 -25.25390625 0.2734375 C-24.13314697 -0.14502441 -23.0123877 -0.56348633 -21.85766602 -0.99462891 C-14.13062895 -3.71312003 -7.35699084 -3.85916808 0 0 Z M-133.90991211 102.91674805 C-138.84033438 106.24864212 -143.83544263 109.46088587 -148.875 112.625 C-156.37761276 117.33886073 -163.85274889 122.09357743 -171.3125 126.875 C-179.20022281 131.92951313 -187.09372569 136.97455148 -195 142 C-202.84263826 146.98552978 -210.6743974 151.98777355 -218.5 157 C-226.32560296 162.01222668 -234.15742141 167.014376 -242 172 C-254.01698353 179.64015259 -266.00880356 187.31946045 -278 195 C-290.88665276 203.25409264 -303.77738408 211.50135689 -316.69213867 219.71142578 C-323.63653392 224.1278038 -330.56985227 228.56130415 -337.5 233 C-345.32560296 238.01222668 -353.15742141 243.014376 -361 248 C-371.94086848 254.95598063 -382.86078354 261.94448548 -393.77832031 268.93701172 C-398.16671118 271.74709832 -402.55630453 274.55530339 -406.94604492 277.36328125 C-409.07946834 278.72846656 -411.21245557 280.09433382 -413.3449707 281.4609375 C-417.77075012 284.29707386 -422.19810104 287.12991882 -426.64453125 289.93359375 C-427.31009033 290.35519775 -427.97564941 290.77680176 -428.66137695 291.21118164 C-430.34506553 292.27692901 -432.03175863 293.33792593 -433.71875 294.3984375 C-436.09726106 295.7986294 -436.09726106 295.7986294 -437 298 C-436.42746133 300.64222913 -436.42746133 300.64222913 -435.42724609 303.72558594 C-435.05375031 304.94345795 -434.68025452 306.16132996 -434.29544067 307.41610718 C-433.87150598 308.7722172 -433.44750262 310.12830576 -433.0234375 311.484375 C-432.58513879 312.90543191 -432.14756395 314.32671225 -431.71066284 315.74819946 C-430.76791602 318.81100486 -429.82081772 321.87241652 -428.87023926 324.93280029 C-426.59948411 332.24385895 -424.34799226 339.56085406 -422.09620667 346.87777328 C-421.57638343 348.5665343 -421.05626951 350.25520586 -420.53587341 351.94379044 C-416.6030871 364.70672157 -412.7399204 377.48903403 -408.9296875 390.2890625 C-408.44336854 391.92106696 -407.95703042 393.55306571 -407.47067261 395.18505859 C-405.37185042 402.23117244 -403.27762457 409.27859387 -401.19495583 416.3295002 C-400.34021432 419.21849678 -399.4803817 422.1059601 -398.61923599 424.99305344 C-398.22070651 426.3335988 -397.82450727 427.6748394 -397.43078232 429.01680374 C-396.89489538 430.84283569 -396.35051561 432.66636893 -395.80566406 434.48974609 C-395.50339905 435.5116806 -395.20113403 436.53361511 -394.88970947 437.58651733 C-394.14008998 440.13916474 -394.14008998 440.13916474 -392 442 C-390.82220287 431.03873358 -389.64839348 420.07704811 -388.47963715 409.1148138 C-387.93678097 404.02432918 -387.39256551 398.93399762 -386.84521484 393.84399414 C-386.31679292 388.92954091 -385.79197921 384.01471441 -385.26963806 379.09961128 C-385.06997961 377.22685644 -384.86903347 375.3542384 -384.66676331 373.48176384 C-384.38312964 370.854 -384.10412714 368.22578182 -383.82617188 365.59741211 C-383.74201523 364.82776627 -383.65785858 364.05812042 -383.57115173 363.26515198 C-383.1062354 358.81519875 -382.92201644 354.47439919 -383 350 C-382.41444336 349.73662842 -381.82888672 349.47325684 -381.22558594 349.2019043 C-378.90143714 347.94677217 -377.29392262 346.59314046 -375.390625 344.76953125 C-374.38128906 343.81143555 -374.38128906 343.81143555 -373.3515625 342.83398438 C-372.65804687 342.16689453 -371.96453125 341.49980469 -371.25 340.8125 C-366.53926008 336.31222089 -361.78939893 331.89537313 -356.86621094 327.62768555 C-354.19771052 325.30025327 -351.60080751 322.90291998 -349 320.5 C-345.7221859 317.47995128 -342.43416732 314.47795863 -339.0625 311.5625 C-335.47041409 308.45035876 -331.98448008 305.23127914 -328.5 302 C-324.41698978 298.21368312 -320.30230283 294.48232951 -316.08984375 290.83984375 C-313.35629441 288.43329844 -310.67885994 285.96696804 -308 283.5 C-304.69973124 280.46109823 -301.39050653 277.438439 -298 274.5 C-294.12182987 271.13677362 -290.34472189 267.66664329 -286.56689453 264.19189453 C-281.74415109 259.75776372 -276.8765888 255.3748176 -272 251 C-270.33307353 249.50028872 -268.66640851 248.00028679 -267 246.5 C-260.33333333 240.5 -253.66666667 234.5 -247 228.5 C-246.17242187 227.75492188 -245.34484375 227.00984375 -244.4921875 226.2421875 C-242.85260121 224.76707382 -241.21200345 223.29308348 -239.5703125 221.8203125 C-234.9796939 217.69902232 -230.41552893 213.55126212 -225.875 209.375 C-222.00632178 205.81746901 -218.09665875 202.31710425 -214.125 198.875 C-211.38176582 196.45449925 -208.69115432 193.97799358 -206 191.5 C-202.09018405 187.89987244 -198.14133532 184.35582395 -194.125 180.875 C-190.84491419 177.98080664 -187.63731943 175.00781108 -184.41967773 172.04467773 C-181.66526572 169.51259884 -178.89257501 167.00964732 -176.0625 164.5625 C-172.47041409 161.45035876 -168.98448008 158.23127914 -165.5 155 C-161.41698978 151.21368312 -157.30230283 147.48232951 -153.08984375 143.83984375 C-150.35629441 141.43329844 -147.67885994 138.96696804 -145 136.5 C-141.69973124 133.46109823 -138.39050653 130.438439 -135 127.5 C-131.12659868 124.14090922 -127.35164056 120.67756864 -123.58227539 117.20288086 C-119.45684638 113.40329858 -115.27226875 109.67432477 -111.05859375 105.97265625 C-109.08699951 104.08336765 -107.46719589 102.30222378 -106 100 C-106.14016946 97.12652606 -106.58603312 95.55195584 -108.3125 93.25 C-116.20508703 87.40363923 -127.1555568 98.34851413 -133.90991211 102.91674805 Z " fill="#FFFFFF" transform="translate(637,4)"/>
</svg>
