<svg width="16" height="15" viewBox="0 0 16 15" fill="none" xmlns="http://www.w3.org/2000/svg">
<path d="M9.32183 1.52188L10.1884 3.13741C10.5492 3.80989 11.1973 4.28078 11.9483 4.41605L13.7526 4.74102C14.9304 4.95315 15.3977 6.39138 14.5695 7.25528L13.3009 8.57871C12.7728 9.12959 12.5252 9.89151 12.6286 10.6476L12.8771 12.464C13.0393 13.6496 11.8159 14.5385 10.7384 14.0179L9.08768 13.2203C8.40056 12.8882 7.59944 12.8882 6.91232 13.2203L5.26164 14.0179C4.1841 14.5385 2.96067 13.6496 3.12287 12.464L3.37136 10.6476C3.47479 9.89151 3.22723 9.12959 2.69913 8.57871L1.43047 7.25528C0.602316 6.39138 1.06963 4.95315 2.24741 4.74102L4.05166 4.41605C4.8027 4.28078 5.45083 3.80988 5.81156 3.13741L6.67817 1.52188C7.24388 0.467294 8.75612 0.467294 9.32183 1.52188Z" fill="#D3D3D3" fill-opacity="0.59" stroke="white"/>
</svg>
