<svg width="29" height="27" viewBox="0 0 29 27" fill="none" xmlns="http://www.w3.org/2000/svg">
<rect x="1.75" y="1.75" width="24.5" height="23.5" fill="white" stroke="#45536F" stroke-width="1.5"/>
<rect x="23" y="5" width="6" height="17" fill="white"/>
<rect y="5" width="5" height="17" fill="white"/>
<rect x="5" width="18" height="4" fill="white"/>
<rect x="5" y="23" width="18" height="4" fill="white"/>
<path d="M19.8333 5.58333H19V4.79167C19 4.35467 18.6275 4 18.1667 4C17.7058 4 17.3333 4.35467 17.3333 4.79167V5.58333H10.6667V4.79167C10.6667 4.35467 10.2942 4 9.83333 4C9.3725 4 9 4.35467 9 4.79167V5.58333H8.16667C5.86917 5.58333 4 7.35904 4 9.54167V19.0417C4 21.2243 5.86917 23 8.16667 23H19.8333C22.1308 23 24 21.2243 24 19.0417V9.54167C24 7.35904 22.1308 5.58333 19.8333 5.58333ZM8.16667 7.16667H19.8333C21.2117 7.16667 22.3333 8.23225 22.3333 9.54167V10.3333H5.66667V9.54167C5.66667 8.23225 6.78833 7.16667 8.16667 7.16667ZM19.8333 21.4167H8.16667C6.78833 21.4167 5.66667 20.3511 5.66667 19.0417V11.9167H22.3333V19.0417C22.3333 20.3511 21.2117 21.4167 19.8333 21.4167ZM19.8333 15.0833C19.8333 15.5203 19.4608 15.875 19 15.875H9C8.53917 15.875 8.16667 15.5203 8.16667 15.0833C8.16667 14.6463 8.53917 14.2917 9 14.2917H19C19.4608 14.2917 19.8333 14.6463 19.8333 15.0833ZM14 18.25C14 18.687 13.6275 19.0417 13.1667 19.0417H9C8.53917 19.0417 8.16667 18.687 8.16667 18.25C8.16667 17.813 8.53917 17.4583 9 17.4583H13.1667C13.6275 17.4583 14 17.813 14 18.25Z" fill="#45536F"/>
</svg>
