<svg width="26" height="25" viewBox="0 0 26 25" fill="none" xmlns="http://www.w3.org/2000/svg">
<rect x="0.75" y="0.75" width="24.5" height="23.5" fill="white" stroke="#45536F" stroke-width="1.5"/>
<rect x="22" y="4" width="4" height="17" fill="white"/>
<rect y="4" width="4" height="17" fill="white"/>
<rect x="4" width="18" height="3" fill="white"/>
<rect x="4" y="22" width="18" height="3" fill="white"/>
<path d="M19.885 9.55168L19.8849 9.55162C19.6495 8.63016 19.1694 7.78823 18.4971 7.11589L15.8834 4.50214C14.8825 3.50126 13.5513 2.95 12.1355 2.95H8.74925C6.65463 2.95 4.95 4.65464 4.95 6.75V17.25C4.95 19.3454 6.65464 21.05 8.75 21.05H11C11.4416 21.05 11.8 20.6916 11.8 20.25C11.8 19.8084 11.4416 19.45 11 19.45H8.75C7.53711 19.45 6.55 18.4629 6.55 17.25V6.75C6.55 5.53711 7.53711 4.55 8.75 4.55H12.1363C12.2415 4.55 12.3463 4.55451 12.45 4.56304V8.25C12.45 9.51812 13.4819 10.55 14.75 10.55H19.1097C19.3569 10.55 19.5905 10.4356 19.7418 10.2404C19.893 10.0452 19.9457 9.79084 19.885 9.55168ZM16.2139 19.0251L16.2138 19.0252C15.9405 19.2993 15.5768 19.45 15.1888 19.45H14.7992V19.0605C14.7992 18.6733 14.95 18.3095 15.2241 18.0354L20.2551 13.0051L20.2552 13.0051C20.5183 12.7412 20.9809 12.7411 21.2449 13.0051L21.245 13.0052C21.3772 13.1368 21.45 13.3122 21.45 13.5C21.45 13.6877 21.3773 13.8625 21.2449 13.9949L16.2139 19.0251ZM14.05 8.25V5.08189C14.3021 5.23498 14.5378 5.41979 14.7521 5.63411L17.3659 8.24786C17.5775 8.45951 17.7616 8.69578 17.9159 8.95H14.75C14.3644 8.95 14.05 8.63564 14.05 8.25ZM22.3769 11.8739C21.5068 11.0039 19.9932 11.0039 19.1239 11.8739C19.1239 11.8739 19.1239 11.8739 19.1239 11.8739L14.0936 16.9041C13.518 17.4798 13.2 18.2462 13.2 19.0613V20.2508C13.2 20.6924 13.5584 21.0508 14 21.0508H15.1895C16.0045 21.0508 16.7702 20.7327 17.3459 20.1571L22.3761 15.1269C22.8107 14.6922 23.05 14.1148 23.05 13.5C23.05 12.8853 22.8107 12.3078 22.3769 11.8739Z" fill="#45536F" stroke="#45536F" stroke-width="0.1"/>
</svg>
